<svg xmlns="http://www.w3.org/2000/svg" enable-background="new 0 0 1024 1024" viewBox="0 0 1024 1024" id="beanie"><path d="M711.4,891.46c-9.15,0-17.57-4.27-23.57-7.31l-28.86-14.64C497.01,787.34,335.06,705.17,173.1,623
			c-8.33-4.23-19.74-10.02-25.69-20.88c-9.2-16.77-1.47-35.96,7.3-52.52c23.46-44.28,47.72-90.06,69.91-134.39
			c3.74-7.48,12.89-10.56,20.39-6.86C384,476.95,527.73,547.88,671.81,620.39c3.65,1.84,5.16,6.25,3.39,9.94
			c-4.96,10.35-9.76,20.64-14.85,31.53c-8.21,17.57-16.69,35.74-26.12,54.75c27.48,12.57,54.97,25.14,82.46,37.71l13.01-26.28
			c9.23-18.63,18.45-37.27,27.68-55.9c0.89-1.79,2.46-3.16,4.36-3.79c1.9-0.63,3.97-0.48,5.76,0.43
			c14.42,7.33,28.84,14.68,43.24,22.03c7.33,3.75,10.38,12.82,6.79,20.24L743.41,864.3c-5.24,10.84-11.92,22.69-24.82,26.22
			c0,0,0,0,0,0C716.16,891.18,713.76,891.46,711.4,891.46z M238.26,421.78c-0.09,0-0.18,0.05-0.23,0.14
			c-22.27,44.49-46.57,90.35-70.07,134.7c-7.24,13.68-13.16,27.79-7.4,38.29c3.44,6.28,10.79,10.38,19.32,14.71
			c161.96,82.17,323.92,164.34,485.88,246.51l28.85,14.64c7.25,3.68,14.25,6.84,20.02,5.27c6.83-1.87,11.46-10.42,15.27-18.28
			l74.13-153.25c0.06-0.13,0.01-0.28-0.11-0.35c-12.15-6.2-24.3-12.4-36.46-18.59c-8.11,16.37-16.21,32.74-24.32,49.11l-13.11,26.48
			c-3.57,7.2-12.08,10.22-19.39,6.88c-27.63-12.63-55.25-25.26-82.86-37.89c-3.67-1.68-6.43-4.7-7.78-8.5
			c-1.35-3.81-1.1-7.89,0.69-11.51c9.4-18.92,17.87-37.07,26.07-54.63c4.02-8.6,7.86-16.83,11.75-25.02
			C516.68,559.15,375.23,489.34,238.37,421.8C238.34,421.79,238.3,421.78,238.26,421.78z"></path><path d="M255.06,423.72l-11.87-9.17c14.32-18.55,27.15-39.53,40.74-61.73c22.21-36.31,45.17-73.85,78.93-108.79
			c51.74-53.56,96.89-82.48,155.84-99.83c69.08-20.32,141.35-14.02,198.26,17.31l-7.23,13.14c-53.44-29.41-121.53-35.27-186.8-16.06
			c-65.72,19.34-107.21,52.31-149.29,95.86c-32.61,33.75-55.13,70.58-76.92,106.19C282.92,383.22,269.88,404.53,255.06,423.72z"></path><path d="M808.79,696.38l-14.31-4.49c11.23-35.82,21.34-62.8,30.26-86.6c10.76-28.7,20.05-53.49,28.77-86.38
			c12.11-45.65,19.7-121.4,1.22-184.68c-18.99-65.06-56.32-116.76-105.12-145.59c-16.81-9.93-30.18-13.74-42.08-11.99
			c-9.87,1.45-19.11,6.9-27.71,12.35c-56.7,35.89-105.82,84.71-142.05,141.2l-12.63-8.1c37.4-58.31,88.12-108.72,146.65-145.77
			c9.53-6.04,20.77-12.63,33.55-14.51c20.33-2.99,39.35,6.51,51.89,13.92c52.09,30.78,91.82,85.58,111.88,154.31
			c19.34,66.24,11.48,145.22-1.12,192.73c-8.92,33.61-18.33,58.72-29.22,87.8C829.93,634.17,819.89,660.95,808.79,696.38z"></path><path d="M715.21 409.4l-14.58-3.52 19.25-79.85c6.29-26.08 12.79-53.06 12.47-79.95-.35-29.16-9.31-54.47-25.23-71.29l10.89-10.31c18.52 19.56 28.94 48.48 29.34 81.42.35 28.77-6.38 56.67-12.88 83.65L715.21 409.4zM716.84 769.41c-2.07 0-4.17-.44-6.19-1.36-27.63-12.63-55.25-25.26-82.86-37.89-3.67-1.68-6.43-4.7-7.78-8.5-1.35-3.81-1.1-7.89.69-11.51 9.4-18.92 17.87-37.07 26.07-54.63 5.1-10.92 9.92-21.24 14.91-31.66l2.41-5c1.72-3.57 4.72-6.25 8.46-7.55 3.73-1.3 7.74-1.07 11.3.66 13.6 6.6 27.79 13.93 41.51 21.02 13.65 7.05 27.76 14.34 41.19 20.86 3.58 1.74 6.25 4.76 7.54 8.51s1.02 7.78-.73 11.34l-2.52 5.1c-9.24 18.65-18.46 37.28-27.69 55.91l-13.11 26.48c0 0 0 0 0 0C727.45 766.38 722.27 769.41 716.84 769.41zM716.6 754.51L716.6 754.51 716.6 754.51zM634.23 716.61c27.48 12.57 54.97 25.14 82.46 37.71l13.01-26.28c9.23-18.63 18.45-37.27 27.68-55.9l2.42-4.9c-13.54-6.57-27.67-13.87-41.34-20.93-13.57-7.01-27.6-14.26-40.97-20.75l-2.31 4.8c-4.95 10.34-9.76 20.62-14.84 31.51C652.15 679.43 643.66 697.6 634.23 716.61z"></path></svg>