<svg xmlns="http://www.w3.org/2000/svg" viewBox="0 0 64 64" id="hoodie"><path d="M45.73,9.1C44.93,7.25,41.79,2,32,2S19.07,7.25,18.27,9.1C3.18,11.61,3,23.88,3,24L4,54.11a1,1,0,0,0,.61.89l.38.14V58a1,1,0,0,0,.45.83,8.07,8.07,0,0,0,4.26,1.06,12.38,12.38,0,0,0,4.14-.78c1.53,1,7,3.89,18.15,3.89s16.62-2.9,18.15-3.89a12.37,12.37,0,0,0,4.14.78,8.08,8.08,0,0,0,4.26-1.06A1,1,0,0,0,59,58V55.13l.38-.14a1,1,0,0,0,.61-.89L61,24C61,23.88,60.82,11.61,45.73,9.1ZM13,57.29a8.4,8.4,0,0,1-6,.1V55.73A12.63,12.63,0,0,0,9.56,56,12.3,12.3,0,0,0,13,55.51Zm36,.18C47.63,58.32,42.49,61,32,61s-15.64-2.68-17-3.53v-2.7C17.43,56,22.75,58,32,58s14.57-2,17-3.23ZM20,54.53V49.79A8,8,0,0,0,25.95,43H37.05A8,8,0,0,0,43,49.79v5A45.69,45.69,0,0,1,32,56,44,44,0,0,1,20,54.53Zm37,2.86a8.4,8.4,0,0,1-6-.1V55.51a12.3,12.3,0,0,0,3.44.49A12.63,12.63,0,0,0,57,55.73Zm1-4a10.35,10.35,0,0,1-7,0V24H49V52.47a18.39,18.39,0,0,1-4,1.76V49a1,1,0,0,0-.84-1C44,48,39,47.09,39,42a1,1,0,0,0-1-1H25a1,1,0,0,0-1,1c0,5.06-5,6-5.16,6A1,1,0,0,0,18,49v4.88a16.77,16.77,0,0,1-3-1.41V24H13V53.41a10.45,10.45,0,0,1-7,0L5,24a12.56,12.56,0,0,1,1.74-5.68c2.15-3.69,5.88-6.06,11.07-7.09a4.55,4.55,0,0,0,2.88,4.71l.63-1.9c-.09,0-2.1-.74-1.35-3.79C20,10,22,4,32,4s11.92,5.9,12,6.26c.73,2.95-1.14,3.72-1.36,3.8L43,15l.32.95a4.55,4.55,0,0,0,2.87-4.73C58.79,13.71,59,23.57,59,24Z"></path><path d="M32,6c-9.52,0-10,4.17-10,5,0,.15.08,3.21,5,3.87V31h2V15a1.88,1.88,0,0,1,2,2,1,1,0,0,0,2,0,1.88,1.88,0,0,1,2-2V31h2V14.87c4.92-.66,5-3.72,5-3.87C42,10.17,41.52,6,32,6Zm3,7a3.79,3.79,0,0,0-3,1.27A4.23,4.23,0,0,0,29,13c-3.84,0-4.95-1.33-5-2,0-1,1.67-3,8-3s8,1.94,8,3C39.94,11.69,38.82,13,35,13Z"></path></svg>