<svg xmlns="http://www.w3.org/2000/svg" viewBox="0 0 24 24" id="shorts"><path d="M21,.48A.5.5,0,0,0,20.5,0H3.5A.5.5,0,0,0,3,.48l-1,22A1.5,1.5,0,0,0,3.54,24h6.1a1.49,1.49,0,0,0,1.48-1.26L12,17.37l.87,5.37A1.49,1.49,0,0,0,14.35,24h6.1A1.5,1.5,0,0,0,22,22.44ZM20.41,10A1.5,1.5,0,0,1,19,8.5V4h1.15ZM17,1h3l.09,2H17ZM4,1H7V3H3.89ZM3.85,4H5V8.5A1.5,1.5,0,0,1,3.59,10Zm7.65,7.5v2.71l-1.36,8.37a.5.5,0,0,1-.49.42H3.54a.5.5,0,0,1-.5-.52L3.54,11A2.5,2.5,0,0,0,6,8.5V4h5.5ZM8,3V1h8V3H8Zm6,1V9a2,2,0,0,1-1.5,1.94V4Zm6.82,18.85a.5.5,0,0,1-.36.15h-6.1a.5.5,0,0,1-.49-.42L12.5,14.21V11.95A3,3,0,0,0,15,9V4h3V8.5A2.5,2.5,0,0,0,20.46,11L21,22.48A.5.5,0,0,1,20.82,22.85Z"></path></svg>