<svg xmlns="http://www.w3.org/2000/svg" viewBox="0 0 64 64" id="night-wear"><path d="M50,8H14a.99943.99943,0,0,1-1-1V1.707A1.70877,1.70877,0,0,1,14.707,0H49.293A1.70877,1.70877,0,0,1,51,1.707V7A.99943.99943,0,0,1,50,8ZM15,6H49V2H15Z"></path><path d="M27.44043,59H14.67383a1.00018,1.00018,0,0,1-.999-.959L12.02148,17.25391a25.71585,25.71585,0,0,1,1.0879-8.5459l.60742-1.999a1.0003,1.0003,0,0,1,1.91406.582L15.02344,9.29a23.68743,23.68743,0,0,0-1.00391,7.88281L15.63379,57H26.58984L31,29.919V21.167a1,1,0,0,1,2,0V30a.99538.99538,0,0,1-.0127.16113l-4.55957,28A1.00064,1.00064,0,0,1,27.44043,59Z"></path><path d="M25.73926 64H16.26074A2.26267 2.26267 0 0114 61.73926V58a1 1 0 012 0v3.73926A.26132.26132 0 0016.26074 62h9.47852A.26132.26132 0 0026 61.73926V58a1 1 0 012 0v3.73926A2.26267 2.26267 0 0125.73926 64zM49.32617 59H36.55957a1.00064 1.00064 0 01-.9873-.83887l-4.55957-28a1.00036 1.00036 0 111.9746-.32226L37.41016 57H48.36621l1.61426-39.82617A23.69 23.69 0 0048.97656 9.29l-.60742-1.999a1.0003 1.0003 0 011.91406-.582l.60742 1.999a25.71835 25.71835 0 011.0879 8.54687L50.3252 58.041A1.00018 1.00018 0 0149.32617 59z"></path><path d="M46.84473 63.999H38.15527A2.21205 2.21205 0 0136 61.73828V57.999a1 1 0 012 0v3.73926c0 .15723.09375.26074.15527.26074h8.68946c.06152 0 .15527-.10351.15527-.26074V57.999a1 1 0 012 0v3.73926A2.21205 2.21205 0 0146.84473 63.999zM48 24H45a1 1 0 010-2h3a1 1 0 010 2zM29.044 17a1.00035 1.00035 0 01-.958-1.28613l.416-1.39356a11.98924 11.98924 0 00-1.34961-9.78906 1.00038 1.00038 0 011.69532-1.0625A13.99173 13.99173 0 0130.418 14.89258l-.416 1.39355A1 1 0 0129.044 17zM34.95605 16.999a1.00005 1.00005 0 01-.958-.71386l-.416-1.39356A13.99275 13.99275 0 0135.15234 3.46777a1.00038 1.00038 0 011.69532 1.0625 11.98977 11.98977 0 00-1.34961 9.78907l.416 1.39355a1.00035 1.00035 0 01-.958 1.28613z"></path></svg>