<?xml version="1.0" standalone="no"?>
<!DOCTYPE svg PUBLIC "-//W3C//DTD SVG 20010904//EN"
 "http://www.w3.org/TR/2001/REC-SVG-20010904/DTD/svg10.dtd">
<svg version="1.0" xmlns="http://www.w3.org/2000/svg"
 width="270.000000pt" height="270.000000pt" viewBox="0 0 270.000000 270.000000"
 preserveAspectRatio="xMidYMid meet">
<metadata>
Created by potrace 1.14, written by Peter Selinger 2001-2017
</metadata>
<g transform="translate(0.000000,270.000000) scale(0.100000,-0.100000)"
fill="#000000" stroke="none">
<path d="M741 2248 c50 -96 175 -254 305 -388 143 -148 147 -157 152 -360 6
-205 -9 -331 -55 -470 -44 -131 -72 -180 -145 -252 -63 -63 -123 -88 -209 -88
-65 0 -98 14 -136 58 l-33 37 0 -30 c0 -40 39 -122 81 -170 19 -21 67 -63 107
-92 47 -35 72 -61 72 -73 0 -16 7 -20 34 -20 29 0 38 7 74 58 61 87 134 152
172 152 43 0 185 -37 231 -60 39 -21 79 -64 79 -86 0 -27 16 -13 64 59 70 101
272 332 406 461 l112 109 -4 73 c-4 52 -13 88 -33 130 -34 69 -140 177 -190
194 -19 6 -35 16 -35 21 0 13 89 127 108 138 14 9 -24 51 -241 268 l-257 258
6 -77 c6 -73 6 -77 -19 -102 -31 -31 -90 -35 -181 -11 -155 40 -277 108 -392
218 -75 71 -92 81 -73 45z m647 -353 c41 -18 187 -157 233 -223 68 -96 11
-119 -122 -49 l-84 44 1 70 2 70 -33 12 c-18 6 -45 23 -60 37 -22 20 -25 27
-15 39 16 19 32 19 78 0z m148 -372 c155 -92 214 -176 214 -305 0 -88 -11
-131 -57 -223 -39 -79 -111 -159 -163 -181 -19 -8 -70 -18 -112 -21 -67 -5
-78 -4 -84 11 -11 28 12 64 56 86 40 20 40 21 25 50 -19 37 -19 152 0 285 8
55 15 157 15 228 0 70 3 127 6 127 3 0 48 -25 100 -57z"/>
</g>
</svg>
