<?xml version="1.0" standalone="no"?>
<!DOCTYPE svg PUBLIC "-//W3C//DTD SVG 20010904//EN"
 "http://www.w3.org/TR/2001/REC-SVG-20010904/DTD/svg10.dtd">
<svg version="1.0" xmlns="http://www.w3.org/2000/svg"
 width="1600.000000pt" height="1600.000000pt" viewBox="0 0 1600.000000 1600.000000"
 preserveAspectRatio="xMidYMid meet">
<metadata>
Created by potrace 1.14, written by Peter Selinger 2001-2017
</metadata>
<g transform="translate(0.000000,1600.000000) scale(0.100000,-0.100000)"
fill="#000000" stroke="none">
<path d="M9060 9705 c-10 -12 -16 -13 -26 -4 -10 8 -14 8 -14 0 0 -7 -8 -8
-24 -1 -13 5 -27 6 -30 2 -4 -3 -26 -7 -49 -8 -23 -1 -55 -7 -70 -13 -16 -6
-33 -9 -38 -5 -5 3 -9 1 -9 -4 0 -5 -6 -9 -12 -10 -7 0 -24 -4 -38 -7 -14 -4
-35 -8 -47 -9 -11 0 -20 -3 -18 -6 6 -10 -29 -27 -48 -24 -9 1 -15 -2 -12 -6
3 -5 -11 -14 -30 -21 -19 -7 -35 -17 -35 -21 0 -4 -7 -8 -15 -8 -8 0 -15 -5
-15 -11 0 -6 -9 -9 -19 -6 -15 3 -18 1 -14 -11 4 -9 2 -13 -4 -9 -6 4 -14 0
-17 -9 -3 -8 -11 -12 -17 -8 -7 4 -10 3 -7 -2 7 -11 -17 -35 -26 -27 -3 4 -6
-1 -6 -10 0 -9 -7 -17 -15 -17 -8 0 -20 -10 -26 -22 -7 -13 -25 -36 -41 -51
-15 -16 -28 -33 -28 -38 0 -6 -5 -7 -10 -4 -6 4 -10 3 -9 -2 3 -20 -2 -34 -11
-28 -6 4 -10 3 -9 -2 3 -19 -2 -34 -10 -29 -5 4 -7 -4 -3 -16 3 -14 1 -19 -6
-14 -6 3 -15 -9 -22 -31 -7 -21 -17 -44 -23 -50 -5 -7 -6 -13 -1 -13 4 0 -1
-7 -12 -16 -10 -8 -12 -12 -4 -8 13 7 13 5 1 -9 -7 -9 -10 -17 -6 -17 5 0 0
-9 -9 -19 -11 -12 -14 -21 -7 -26 7 -4 8 -12 1 -24 -5 -10 -6 -21 -3 -25 3 -3
2 -6 -3 -6 -9 0 -13 -21 -14 -75 -1 -11 -6 -23 -13 -27 -9 -6 -8 -8 2 -8 11 0
11 -3 1 -15 -9 -11 -9 -15 -1 -15 9 0 9 -5 0 -22 -9 -16 -9 -23 -1 -26 9 -3 9
-9 1 -24 -8 -16 -8 -19 1 -13 9 6 9 3 1 -13 -8 -14 -8 -23 -1 -27 8 -5 7 -12
-2 -23 -8 -10 -9 -13 -1 -9 6 4 14 3 18 -3 3 -5 1 -10 -6 -10 -7 0 -8 -4 -2
-12 5 -7 9 -20 8 -28 0 -8 3 -17 7 -20 4 -4 9 -22 10 -42 2 -20 5 -35 8 -33 3
1 14 -17 26 -41 11 -24 16 -41 10 -38 -6 3 -1 -3 11 -13 12 -10 23 -25 25 -32
2 -8 18 -30 36 -48 17 -19 32 -38 32 -44 0 -6 4 -8 9 -5 12 8 33 -19 23 -29
-4 -5 -1 -5 6 -1 7 4 12 2 12 -5 0 -7 3 -10 6 -6 4 3 12 1 20 -6 31 -28 41
-34 92 -57 28 -13 52 -26 52 -30 0 -3 8 -6 18 -7 25 -2 45 -7 60 -16 6 -5 17
-5 22 -2 6 3 10 2 10 -4 0 -6 7 -8 15 -5 8 3 20 2 27 -3 12 -7 60 -13 111 -14
9 0 15 -5 11 -11 -4 -6 2 -6 15 1 16 9 21 9 21 -1 0 -9 3 -9 12 0 13 13 32 16
24 4 -2 -4 4 -8 14 -8 10 0 16 4 14 8 -3 4 0 8 5 8 6 0 11 -6 11 -12 0 -9 3
-9 8 -2 4 6 32 10 64 10 31 -1 54 3 51 7 -2 4 7 6 21 3 15 -3 24 -1 21 5 -4 5
2 10 12 10 45 3 59 6 73 12 8 3 26 8 40 11 14 2 44 14 68 26 23 11 47 18 52
15 6 -3 10 1 10 9 0 9 7 16 15 16 27 0 30 1 38 16 4 8 15 14 22 14 8 0 15 5
15 11 0 6 9 9 20 6 10 -3 18 -1 17 3 -3 10 51 60 64 60 6 0 8 4 4 9 -3 5 4 12
15 16 11 4 18 10 15 15 -3 5 4 12 16 15 11 4 18 9 15 12 -2 3 9 18 25 34 16
16 26 29 22 29 -4 0 1 7 11 15 11 8 16 15 12 15 -4 0 0 7 8 16 9 8 14 19 12
23 -3 4 4 13 14 21 10 8 17 17 14 22 -3 4 0 8 7 8 7 0 10 3 6 6 -3 4 1 21 10
38 9 17 18 37 19 44 1 8 6 21 10 30 4 9 8 20 9 25 2 4 3 8 5 10 5 7 22 118 23
155 1 12 5 22 10 22 5 0 4 6 -2 13 -6 8 -8 17 -4 21 12 11 12 106 0 99 -6 -4
-7 -1 -3 6 11 18 15 61 5 55 -5 -3 -9 1 -9 10 0 8 6 17 13 19 8 4 7 6 -3 6 -9
1 -16 12 -17 29 -5 56 -10 74 -24 83 -8 5 -10 9 -5 9 5 0 3 6 -3 13 -6 8 -8
17 -4 20 3 4 2 7 -4 7 -6 0 -13 10 -17 23 -6 27 -35 64 -98 127 -26 27 -44 51
-40 55 4 4 2 6 -3 4 -18 -4 -45 13 -38 24 3 5 1 7 -4 4 -6 -4 -21 1 -34 11
-26 20 -60 36 -71 34 -5 -1 -8 3 -8 9 0 5 -4 8 -9 5 -5 -4 -11 -1 -13 5 -2 6
-16 12 -31 12 -15 0 -27 4 -27 9 0 5 -4 7 -9 3 -5 -3 -12 -1 -16 4 -3 6 -12 8
-19 5 -8 -3 -17 -1 -20 5 -4 6 -14 7 -23 4 -11 -4 -14 -3 -9 5 4 7 2 10 -7 6
-7 -2 -32 -1 -54 4 -23 5 -47 6 -56 1 -9 -6 -18 -5 -21 0 -4 5 -20 7 -37 4
-21 -3 -29 -1 -24 6 9 16 -1 13 -15 -4z m-76 -357 c-6 -10 -4 -10 7 -2 19 14
136 8 157 -8 13 -11 14 -11 7 2 -7 11 -2 10 19 -4 16 -10 25 -13 22 -7 -4 6 7
3 23 -7 17 -9 31 -21 31 -25 0 -5 4 -6 9 -3 11 7 102 -94 95 -106 -3 -4 -1 -8
4 -8 9 0 25 -37 23 -53 -1 -4 4 -17 10 -29 9 -16 8 -19 -2 -13 -9 6 -10 3 -5
-11 12 -28 13 -56 4 -82 -4 -13 -4 -21 0 -18 13 8 1 -58 -12 -66 -7 -5 -7 -8
3 -8 11 0 11 -3 1 -15 -10 -12 -10 -15 1 -15 9 0 10 -3 4 -8 -5 -4 -11 -16
-13 -26 -2 -10 -10 -25 -18 -33 -17 -18 -18 -27 -1 -17 9 6 9 5 0 -8 -7 -8 -9
-19 -5 -23 4 -5 2 -6 -3 -2 -6 3 -19 -14 -29 -39 -10 -24 -21 -42 -26 -41 -4
1 -8 -1 -9 -5 -2 -13 -40 -48 -52 -48 -5 0 -8 -4 -5 -9 6 -9 -11 -22 -95 -72
-28 -16 -47 -24 -43 -17 6 10 5 11 -8 1 -8 -7 -18 -10 -21 -6 -4 3 -7 1 -7 -6
0 -8 -6 -11 -16 -7 -9 3 -21 3 -27 -1 -18 -11 -137 -11 -130 0 3 6 -2 5 -12 0
-17 -10 -45 -5 -105 20 -14 6 -29 11 -33 11 -5 1 -14 9 -21 19 -7 9 -17 17
-21 17 -4 0 -20 15 -36 33 -50 55 -51 57 -37 57 7 0 5 5 -5 13 -9 6 -19 23
-21 37 -3 14 -5 27 -6 30 -2 3 -2 9 -1 14 1 4 -4 15 -11 24 -11 13 -11 14 2 7
12 -7 13 -6 5 6 -6 8 -10 30 -8 49 5 74 10 110 16 116 3 3 3 12 0 20 -3 8 0
14 7 14 6 0 8 5 5 10 -3 6 0 10 7 11 9 0 10 2 1 5 -7 3 -9 12 -6 20 3 7 9 12
13 9 5 -3 6 4 3 15 -3 12 0 20 6 20 7 0 10 4 7 9 -3 5 1 14 9 21 8 7 12 16 9
21 -3 5 0 9 5 9 6 0 11 4 11 10 0 15 92 110 101 104 5 -3 9 2 9 10 0 14 12 20
33 17 4 0 7 3 7 8 0 13 81 53 96 47 7 -3 16 -1 19 5 4 5 10 7 14 5 4 -3 13 -1
21 5 21 13 32 11 24 -3z"/>
<path d="M5848 9705 c-3 -3 -26 -8 -49 -10 -56 -5 -71 -8 -88 -19 -11 -7 -12
-6 -6 5 7 11 6 12 -7 2 -8 -7 -18 -10 -21 -6 -4 3 -7 1 -7 -6 0 -7 -6 -11 -12
-8 -7 2 -27 -2 -44 -9 -17 -7 -34 -10 -38 -7 -3 4 -6 1 -6 -5 0 -7 -9 -12 -20
-12 -11 0 -20 -5 -20 -11 0 -5 -4 -7 -10 -4 -5 3 -10 1 -10 -5 0 -7 -7 -10
-15 -6 -9 3 -19 -3 -26 -15 -6 -11 -13 -18 -16 -15 -3 3 -12 -2 -20 -10 -8 -8
-19 -12 -24 -8 -5 3 -8 1 -7 -4 3 -11 -40 -52 -54 -52 -5 0 -7 -4 -3 -9 3 -5
-5 -17 -17 -26 -13 -8 -22 -16 -20 -18 8 -5 -11 -36 -19 -31 -5 3 -9 2 -8 -3
3 -19 -2 -34 -10 -29 -4 3 -7 -6 -5 -19 1 -14 -4 -39 -13 -55 -8 -16 -12 -34
-8 -40 3 -5 1 -10 -5 -10 -6 0 -9 -4 -6 -9 4 -5 0 -12 -6 -14 -10 -4 -10 -6
-1 -6 9 -1 10 -8 3 -27 -7 -16 -7 -23 0 -19 6 3 10 1 10 -4 0 -6 -4 -11 -8
-11 -5 0 -9 -7 -9 -15 0 -8 4 -12 9 -9 4 3 8 0 8 -5 0 -6 -5 -11 -10 -11 -7 0
-7 -6 0 -20 6 -11 7 -20 3 -20 -4 0 -1 -5 7 -10 13 -8 13 -10 1 -10 -11 0 -10
-4 4 -13 10 -8 15 -19 11 -25 -4 -7 -2 -12 4 -12 7 0 10 -5 8 -12 -3 -7 12
-29 33 -50 20 -20 35 -39 32 -42 -2 -2 4 -7 15 -10 11 -4 23 -13 26 -21 3 -8
13 -15 22 -15 9 0 29 -9 45 -21 16 -11 38 -22 49 -24 12 -2 34 -11 51 -19 19
-9 27 -10 22 -3 -3 7 2 5 13 -4 10 -9 24 -14 31 -12 6 2 15 -1 19 -8 5 -8 3
-9 -6 -4 -9 5 -11 4 -6 -3 5 -9 13 -9 26 -2 13 7 21 7 25 0 4 -6 11 -8 16 -5
5 4 9 1 9 -6 0 -7 3 -9 7 -6 3 4 13 1 21 -6 13 -10 14 -9 8 1 -7 12 -4 12 14
2 12 -6 34 -14 48 -16 15 -3 30 -11 34 -17 4 -7 8 -9 8 -5 0 15 85 -25 108
-50 25 -28 28 -37 10 -26 -7 4 -5 -2 5 -13 12 -14 15 -23 7 -28 -5 -3 -8 -10
-5 -14 6 -10 -48 -71 -63 -71 -7 0 -12 -6 -12 -12 0 -9 -3 -8 -10 2 -8 13 -10
12 -15 -1 -4 -10 -17 -15 -35 -14 -17 1 -30 -1 -30 -5 0 -4 -25 -7 -55 -8 -40
0 -53 3 -48 11 5 9 3 9 -8 1 -16 -13 -77 -13 -96 -1 -7 5 -17 6 -22 2 -5 -3
-13 -1 -16 5 -5 8 -11 7 -21 -1 -11 -9 -14 -8 -15 7 0 11 -3 14 -6 6 -2 -6
-10 -9 -16 -5 -7 4 -23 9 -37 11 -13 2 -30 8 -37 14 -7 6 -13 7 -13 3 0 -5
-10 0 -22 11 -12 10 -18 13 -14 6 7 -12 4 -12 -15 -2 -13 7 -33 20 -43 29 -11
9 -16 10 -12 4 4 -7 5 -13 2 -13 -2 0 -11 6 -18 13 -35 32 -61 51 -54 40 4 -7
3 -13 -3 -13 -5 0 -12 6 -14 13 -4 9 -6 9 -6 -1 -1 -7 -6 -10 -11 -7 -6 4 -10
3 -9 -2 4 -21 -2 -34 -13 -27 -7 4 -8 3 -4 -5 4 -6 2 -18 -4 -26 -7 -8 -9 -15
-4 -15 5 0 1 -7 -10 -15 -10 -7 -15 -18 -11 -24 3 -6 1 -11 -5 -11 -6 0 -8 -4
-5 -10 3 -5 1 -10 -4 -10 -6 0 -11 -8 -11 -17 0 -16 -2 -16 -10 -3 -8 11 -9 7
-4 -14 5 -19 3 -27 -3 -23 -12 8 -36 -17 -26 -26 3 -4 1 -12 -4 -19 -32 -41
-14 -76 50 -97 22 -8 34 -17 31 -23 -4 -7 -2 -8 5 -4 6 4 18 2 26 -4 8 -7 15
-9 15 -5 0 4 6 2 13 -4 8 -6 17 -8 20 -4 4 3 7 1 7 -5 0 -6 7 -9 15 -6 8 4 15
1 15 -7 0 -7 3 -9 7 -6 3 4 13 1 21 -6 13 -9 14 -9 8 1 -4 6 -3 12 3 12 5 0
11 -5 13 -11 2 -6 26 -13 52 -15 27 -1 52 -6 55 -11 3 -4 24 -8 46 -8 22 0 43
-4 47 -10 5 -6 8 -5 8 3 0 9 5 10 18 4 9 -5 27 -8 40 -7 12 1 22 -2 22 -7 0
-5 6 -6 12 -2 19 12 48 12 48 1 0 -5 7 -4 15 3 12 10 15 10 15 -1 0 -10 3 -10
12 -1 16 16 31 15 22 0 -6 -10 -4 -10 7 -2 8 6 31 11 52 10 20 0 37 2 37 5 0
3 10 5 23 4 12 -1 27 2 34 7 7 5 32 10 57 11 24 1 42 5 40 8 -2 4 3 10 12 13
23 9 26 8 19 -6 -4 -7 1 -4 10 7 9 11 18 19 20 18 3 -2 6 -3 8 -2 1 0 10 2 19
4 10 2 25 10 34 19 8 9 24 16 35 16 11 0 17 5 14 10 -3 6 1 10 9 10 9 0 16 4
16 9 0 5 12 12 26 15 15 4 24 10 20 13 -3 3 9 17 26 30 18 12 28 23 23 23 -5
0 0 6 11 14 32 22 97 164 100 216 1 25 3 45 4 45 1 0 3 10 4 23 2 12 -1 22 -5
22 -4 0 -4 13 1 29 5 19 4 33 -3 40 -6 6 -7 11 -3 11 5 0 2 8 -5 17 -12 14
-12 16 0 8 9 -5 7 5 -7 27 -12 19 -20 37 -18 39 5 6 -103 107 -109 101 -3 -3
-5 2 -5 12 0 9 -4 15 -9 12 -4 -3 -28 4 -52 16 -24 12 -47 22 -51 23 -3 0 -10
3 -14 8 -4 4 -18 7 -30 7 -12 0 -29 6 -36 13 -7 6 -24 12 -38 12 -14 -1 -28 3
-31 7 -3 5 -20 10 -37 11 -18 1 -32 6 -32 11 0 5 -3 6 -7 3 -3 -4 -13 -1 -21
6 -13 10 -14 9 -7 -3 7 -12 6 -13 -6 -3 -8 6 -17 12 -21 12 -5 1 -9 1 -10 2
-2 0 -12 2 -22 4 -10 2 -22 9 -26 15 -4 7 -10 11 -14 11 -23 -3 -36 0 -31 9 3
5 0 7 -8 5 -17 -7 -57 27 -57 49 0 9 -4 16 -9 16 -5 0 -8 11 -7 24 0 13 5 22
10 19 4 -3 5 5 1 17 -5 15 -4 20 3 16 6 -4 19 5 28 19 9 14 23 25 30 25 8 0
14 4 14 9 0 5 7 12 16 15 10 4 13 2 8 -7 -6 -8 -3 -8 9 1 9 8 21 11 27 7 5 -3
10 -1 10 5 0 6 5 8 10 5 6 -3 10 -2 10 2 0 10 160 10 177 0 6 -4 15 -3 18 3 5
8 11 7 21 -1 8 -6 34 -13 59 -15 25 -1 50 -6 57 -10 7 -5 21 -9 31 -9 10 -1
22 -7 27 -14 4 -7 9 -12 11 -11 11 4 59 -13 59 -22 0 -5 5 -6 10 -3 6 3 10 2
10 -2 0 -5 9 -9 20 -10 11 -1 18 2 15 8 -4 5 -1 9 4 9 6 0 11 7 11 15 0 8 4
15 10 15 5 0 7 7 4 15 -4 8 1 17 9 21 9 3 13 12 10 20 -3 8 0 14 6 14 6 0 11
9 11 20 0 11 4 20 10 20 5 0 7 7 4 15 -5 11 -2 14 12 9 11 -4 16 -4 12 1 -4 4
-2 15 5 23 9 13 9 14 0 8 -7 -4 -13 -3 -13 2 0 6 7 12 15 16 8 3 14 9 13 13
-1 4 3 18 10 31 8 14 9 22 2 22 -5 0 -10 7 -10 16 0 8 -4 12 -10 9 -5 -3 -10
-1 -10 5 0 6 -4 8 -10 5 -5 -3 -10 -1 -10 5 0 7 -7 10 -15 6 -8 -3 -15 -2 -15
3 0 10 -80 37 -97 33 -7 -2 -13 1 -13 5 0 8 -23 13 -67 16 -7 0 -13 4 -13 7 0
4 -12 8 -26 8 -15 0 -30 5 -34 12 -6 9 -9 9 -12 -1 -4 -11 -8 -12 -20 -2 -8 7
-18 10 -22 6 -8 -9 -46 -12 -46 -4 0 9 -163 6 -177 -2 -6 -4 -13 -2 -15 4 -2
5 -6 7 -10 4z"/>
<path d="M7390 9702 c0 -5 -22 -8 -50 -8 -27 1 -50 -3 -50 -7 0 -5 -7 -7 -15
-3 -8 3 -15 0 -15 -6 0 -6 -3 -9 -6 -5 -3 3 -22 0 -42 -7 -21 -7 -47 -12 -59
-11 -12 1 -20 -2 -17 -7 3 -4 0 -8 -6 -8 -30 0 -219 -102 -228 -122 -2 -5 -8
-8 -13 -8 -13 0 -48 -37 -42 -44 4 -3 -1 -6 -10 -6 -9 0 -21 -9 -27 -20 -6
-12 -16 -18 -23 -14 -7 4 -9 4 -5 -1 4 -4 -3 -18 -17 -30 -13 -13 -21 -26 -17
-31 4 -4 -1 -4 -10 -1 -11 4 -15 2 -12 -6 2 -7 -5 -23 -16 -35 -11 -12 -18
-22 -15 -22 4 0 -1 -7 -9 -16 -9 -8 -16 -22 -16 -30 0 -9 -5 -12 -12 -8 -7 4
-10 3 -5 -1 4 -5 0 -19 -8 -32 -9 -13 -12 -23 -8 -23 5 0 2 -4 -6 -9 -8 -5
-15 -21 -15 -36 -1 -14 -8 -30 -16 -35 -9 -6 -10 -10 -3 -10 8 0 8 -8 -3 -28
-13 -26 -26 -88 -27 -122 0 -8 -5 -18 -11 -22 -7 -5 -6 -8 3 -8 9 0 10 -4 5
-12 -11 -16 -11 -39 -1 -55 5 -8 3 -13 -4 -13 -8 0 -8 -4 -1 -12 17 -21 17
-24 3 -41 -9 -12 -10 -17 -2 -17 7 0 9 -5 4 -12 -10 -18 -13 -39 -3 -33 4 2 8
-6 8 -20 0 -14 -5 -22 -10 -19 -6 4 -3 -4 5 -17 8 -13 13 -32 12 -41 -2 -10 0
-18 4 -18 4 0 8 -7 9 -15 1 -8 3 -22 4 -30 1 -8 8 -17 15 -19 8 -3 11 -11 7
-17 -3 -6 -1 -15 5 -19 7 -4 13 -16 14 -28 0 -11 4 -19 8 -16 4 2 12 -10 19
-26 7 -17 16 -30 21 -30 5 0 9 -7 9 -17 0 -9 3 -14 6 -10 8 8 44 -25 44 -40 0
-7 5 -13 11 -13 16 0 39 -26 31 -35 -4 -5 -2 -5 4 -2 6 4 22 -2 34 -13 13 -11
40 -27 61 -37 21 -9 36 -20 34 -23 -3 -4 7 -7 22 -7 15 0 29 -6 31 -12 2 -6 8
-9 13 -5 5 3 9 0 9 -6 0 -6 4 -9 10 -5 5 3 25 -1 45 -9 20 -9 33 -11 30 -6 -3
6 -1 10 4 10 6 0 11 -5 11 -11 0 -5 5 -7 10 -4 6 3 10 2 10 -2 0 -8 46 -14
128 -15 17 -1 32 -6 32 -11 0 -5 7 -4 16 4 13 10 17 10 24 0 6 -11 9 -11 13 0
5 12 6 12 6 0 1 -11 4 -11 18 0 14 12 16 12 8 0 -6 -11 -5 -12 6 -5 16 10 27
12 83 15 23 2 48 -1 55 -6 10 -5 12 -4 7 3 -7 12 15 20 69 24 17 2 33 7 36 12
4 4 20 9 37 9 17 1 28 5 26 8 -5 9 52 29 60 22 3 -4 6 -1 6 5 0 7 7 12 15 12
8 0 15 5 15 10 0 6 7 10 15 10 8 0 15 5 15 11 0 5 5 7 10 4 6 -3 13 1 16 9 3
9 10 16 16 16 5 0 20 10 33 23 13 12 30 27 37 33 31 27 57 64 47 69 -5 4 -6
12 -3 18 4 7 4 9 0 5 -4 -3 -59 45 -121 107 l-114 113 -53 -49 c-29 -27 -62
-52 -73 -55 -10 -4 -25 -13 -33 -20 -7 -8 -18 -12 -23 -9 -5 4 -9 1 -9 -5 0
-7 -6 -10 -14 -7 -8 3 -16 2 -18 -3 -2 -5 -16 -11 -33 -14 -16 -2 -30 -5 -30
-6 0 -1 -28 -3 -62 -4 -37 -2 -60 1 -56 7 3 5 -5 4 -17 -3 -17 -9 -24 -9 -30
0 -4 6 -10 11 -14 11 -37 -5 -66 1 -60 12 4 6 4 9 0 5 -10 -8 -66 11 -66 23 0
5 -7 9 -15 9 -8 0 -15 7 -15 16 0 8 -5 12 -11 9 -6 -4 -13 2 -16 14 -3 11 -9
19 -13 16 -4 -2 -13 8 -21 23 -8 15 -18 30 -22 33 -4 3 -9 17 -11 30 -2 13 -6
31 -9 39 -11 26 -15 117 -6 131 4 7 3 19 -2 25 -7 8 -6 14 1 19 6 3 8 10 5 15
-3 5 -1 19 6 31 9 17 8 20 -3 13 -8 -5 -6 3 6 20 11 18 13 25 5 21 -8 -5 -5 1
5 13 11 12 16 22 12 22 -4 0 4 20 18 44 13 24 22 47 19 50 -4 3 1 6 11 6 9 0
15 4 12 9 -7 11 19 33 28 23 4 -4 7 -2 6 3 -4 19 0 38 7 32 3 -4 13 2 20 13 8
11 19 17 25 14 6 -4 8 -2 5 3 -4 6 4 18 18 27 14 9 25 13 25 9 0 -4 6 0 13 9
15 19 102 52 116 44 5 -4 12 -2 16 4 4 6 11 8 16 5 5 -4 9 -2 9 2 0 5 37 7 83
5 115 -5 117 -5 117 -14 0 -4 3 -7 8 -7 25 4 42 -2 36 -13 -4 -7 -4 -10 1 -6
13 12 68 -22 116 -73 26 -27 50 -49 54 -49 8 0 56 37 96 75 15 13 29 21 33 18
3 -4 6 -1 6 5 0 7 5 12 10 12 6 0 23 11 38 25 15 14 34 32 44 41 9 9 24 17 35
19 10 1 17 8 15 14 -1 6 2 11 7 11 14 0 1 43 -17 58 -9 6 -12 12 -8 12 4 0 1
7 -8 15 -8 8 -20 15 -26 15 -7 0 -10 7 -6 15 3 10 -1 15 -12 15 -9 0 -23 9
-30 20 -7 12 -17 18 -22 15 -6 -3 -10 -2 -10 3 0 5 -13 15 -30 22 -16 7 -30
17 -30 22 0 5 -4 7 -9 3 -5 -3 -17 2 -25 11 -9 8 -16 12 -16 8 0 -5 -5 -3 -11
3 -6 6 -18 9 -25 6 -8 -3 -14 -1 -14 4 0 5 -12 10 -27 11 -15 1 -31 6 -36 11
-5 5 -16 7 -25 4 -8 -4 -13 -2 -10 3 4 5 -8 8 -25 8 -18 -1 -38 3 -44 9 -9 6
-13 6 -13 -1 0 -6 -10 -9 -22 -6 -41 9 -99 10 -104 2 -3 -5 -13 -4 -22 1 -9 5
-26 5 -40 0 -15 -6 -21 -5 -17 1 3 6 1 10 -4 10 -6 0 -11 -4 -11 -8z"/>
<path d="M3150 9684 c0 -6 -23 -10 -55 -11 -55 0 -90 -16 -81 -38 2 -7 -2 -24
-9 -39 -10 -19 -11 -24 -2 -19 7 4 7 0 -2 -10 -7 -9 -10 -17 -6 -17 4 0 1 -8
-6 -17 -10 -11 -10 -14 -1 -9 6 4 12 2 12 -3 0 -6 -5 -11 -12 -11 -6 0 -8 -3
-5 -6 3 -4 2 -16 -4 -27 -8 -15 -8 -18 1 -12 9 6 9 2 0 -15 -6 -12 -9 -27 -7
-34 3 -7 -1 -23 -8 -36 -7 -13 -10 -31 -7 -39 4 -10 1 -12 -7 -6 -10 6 -11 3
-2 -14 7 -13 8 -21 2 -21 -6 0 -7 -7 -4 -17 4 -9 2 -14 -3 -11 -5 3 -10 -10
-12 -31 -1 -20 -4 -45 -6 -56 -3 -11 -5 -24 -5 -28 -1 -5 -6 -5 -13 -1 -7 5
-8 3 -3 -7 12 -18 14 -49 4 -55 -5 -2 -6 -11 -2 -19 3 -8 0 -15 -6 -15 -6 0
-8 -7 -5 -15 4 -8 2 -15 -4 -15 -6 0 -8 -10 -4 -22 4 -16 2 -19 -9 -13 -11 7
-12 6 -2 -6 10 -12 9 -20 -4 -39 -9 -13 -11 -20 -5 -16 7 4 12 2 12 -3 0 -6
-4 -11 -8 -11 -4 0 -7 -12 -6 -27 1 -16 -2 -32 -6 -38 -3 -5 -7 -23 -8 -38 -1
-16 -5 -34 -9 -40 -4 -6 -8 -27 -10 -47 -2 -19 -7 -36 -12 -38 -4 -1 -5 -17
-3 -34 3 -17 1 -28 -4 -25 -5 3 -10 -16 -11 -41 -3 -60 -5 -72 -13 -72 -3 0
-6 -8 -7 -17 -1 -22 -13 -100 -20 -133 -3 -14 -7 -36 -8 -50 -2 -14 -4 -26 -5
-27 -2 -2 -3 -6 -5 -10 -1 -5 -5 -16 -9 -25 -4 -10 -6 -23 -4 -30 3 -7 -2 -19
-11 -26 -13 -10 -14 -12 -1 -10 8 2 14 -2 13 -7 -1 -7 157 -10 472 -10 260 0
471 3 468 7 -2 5 1 8 6 8 6 0 11 -4 11 -10 0 -6 9 -6 25 0 14 5 32 7 40 4 8
-4 15 -2 15 3 0 5 12 9 28 8 15 0 44 8 65 18 21 10 42 15 47 12 6 -3 10 -2 10
3 0 6 7 13 16 16 10 4 13 2 8 -7 -6 -9 -5 -9 8 0 8 7 19 9 23 5 5 -4 5 -1 1 6
-6 10 -3 13 19 12 3 0 15 9 27 20 12 11 25 20 30 20 4 0 10 0 13 0 10 0 42 35
38 43 -4 6 12 11 29 8 5 0 7 2 7 7 -3 19 2 33 11 27 6 -3 10 1 10 9 0 9 5 16
11 16 5 0 7 5 4 10 -3 6 -1 10 4 10 6 0 11 7 11 15 0 8 5 15 11 15 5 0 8 4 4
9 -3 5 -1 12 5 16 6 4 8 10 5 15 -3 5 -1 11 4 14 5 4 8 17 6 31 -1 14 1 25 6
25 5 0 6 7 3 15 -4 9 0 15 7 15 11 0 11 2 0 9 -12 8 -12 12 -2 24 8 11 9 17 1
22 -8 5 -7 11 2 23 10 12 10 14 1 8 -12 -7 -16 8 -16 67 0 9 -3 17 -7 17 -4 0
-13 14 -20 30 -7 17 -17 30 -22 30 -5 0 -6 5 -3 10 3 6 1 10 -5 10 -6 0 -8 5
-4 12 4 6 3 8 -3 5 -5 -4 -20 5 -31 18 -12 14 -27 25 -33 25 -5 0 -7 6 -3 13
4 6 4 9 -1 5 -4 -4 -16 -3 -27 3 -19 10 -19 12 -2 30 9 10 22 19 29 19 7 0 21
8 33 18 11 10 32 27 46 37 14 11 26 25 26 32 0 7 7 10 17 6 10 -4 14 -2 10 4
-4 6 2 21 13 33 11 13 20 29 20 37 0 7 5 13 12 13 6 0 8 3 5 6 -3 4 -2 15 4
26 6 11 11 32 11 48 1 16 5 27 11 23 5 -3 4 4 -2 15 -13 24 -14 35 -3 28 4 -2
8 4 8 15 0 10 -4 19 -8 19 -8 0 -3 34 8 52 5 7 3 8 -6 3 -10 -6 -12 -3 -8 13
4 14 2 20 -5 15 -6 -4 -8 0 -4 10 3 10 2 17 -4 17 -6 0 -8 4 -4 9 3 5 -2 17
-11 25 -8 9 -13 16 -10 16 3 0 -8 13 -24 28 -16 16 -26 33 -22 37 4 5 -1 5
-12 1 -13 -4 -17 -2 -13 8 4 10 1 13 -9 9 -7 -3 -14 0 -14 7 0 6 -4 8 -10 5
-5 -3 -10 -1 -10 4 0 6 -4 11 -9 11 -5 0 -26 8 -47 17 -22 9 -48 18 -59 20
-11 2 -27 6 -35 9 -8 4 -46 8 -84 10 -41 2 -73 9 -78 16 -5 9 -8 9 -8 1 0 -13
-107 -13 -129 1 -9 6 -12 5 -7 -2 8 -14 -34 -12 -53 2 -11 8 -13 8 -7 -2 8
-14 -19 -12 -43 2 -9 6 -12 5 -8 -1 5 -8 -18 -11 -68 -10 -46 0 -75 5 -75 11
0 8 -3 8 -8 0 -9 -14 -105 -14 -114 0 -5 8 -8 7 -8 -1 0 -7 -12 -13 -26 -13
-16 0 -23 4 -18 12 5 8 3 8 -7 2 -20 -13 -83 -13 -91 0 -5 7 -8 8 -8 0z m312
-323 c-1 -7 2 -10 8 -6 6 3 8 10 5 15 -7 12 88 7 97 -5 5 -7 8 -6 8 0 0 7 25
10 63 9 80 -1 147 -13 147 -25 0 -6 3 -8 8 -5 4 2 16 -2 27 -10 10 -8 15 -14
10 -14 -5 0 0 -6 10 -14 11 -8 16 -19 12 -30 -4 -9 -2 -16 4 -16 6 0 7 -6 2
-12 -4 -7 -8 -23 -9 -36 -2 -36 -25 -71 -63 -95 -20 -12 -39 -21 -43 -19 -5 1
-8 -3 -8 -10 0 -9 -3 -9 -12 0 -8 8 -15 9 -25 1 -7 -7 -13 -8 -13 -5 0 4 -10
2 -21 -5 -16 -8 -20 -8 -14 1 6 9 2 9 -14 1 -13 -8 -21 -8 -21 -2 0 7 -8 7
-24 1 -15 -5 -27 -5 -35 3 -6 6 -11 7 -11 1 0 -11 -40 -11 -58 0 -7 4 -12 2
-13 -6 0 -9 -2 -10 -5 -1 -4 8 -13 9 -30 3 -17 -7 -24 -6 -24 2 0 9 -3 9 -12
0 -8 -8 -15 -9 -25 -1 -10 9 -13 8 -13 -1 0 -9 -4 -9 -17 1 -14 12 -16 12 -9
-1 4 -8 0 -6 -8 4 -12 15 -13 22 -4 27 7 5 9 11 5 15 -4 4 -1 14 6 22 9 13 9
14 0 8 -15 -8 -16 -5 -7 18 3 9 11 13 18 9 8 -4 8 -3 0 6 -14 15 -6 63 10 54
7 -4 7 -1 -1 7 -8 9 -9 19 -2 32 5 10 7 18 3 18 -3 0 -2 6 4 13 6 6 11 17 11
22 3 33 13 41 48 39 24 -1 37 -6 35 -13z m-132 -582 c0 -5 11 -4 25 1 17 7 25
6 25 -1 0 -8 5 -7 15 1 12 10 15 10 15 -1 0 -12 2 -12 9 0 6 9 11 10 15 2 4
-6 13 -8 19 -4 17 10 47 11 47 2 0 -5 11 -4 25 1 17 7 25 6 25 -1 0 -8 4 -8
14 0 10 8 16 9 21 1 3 -6 12 -7 18 -3 17 11 41 10 49 -2 5 -6 8 -4 8 5 0 13 2
13 9 1 8 -12 12 -12 25 -2 11 9 16 10 16 2 0 -6 6 -11 14 -11 16 0 76 -30 61
-30 -5 0 -4 -4 4 -9 14 -9 33 -93 23 -101 -4 -3 -8 -14 -10 -25 -5 -38 -8 -43
-37 -67 -41 -33 -74 -48 -112 -50 -18 -1 -33 -6 -33 -11 0 -5 -7 -4 -15 3 -9
7 -15 8 -15 2 0 -11 -25 -10 -36 1 -4 4 -13 2 -21 -5 -10 -8 -17 -8 -25 0 -8
8 -17 8 -30 1 -13 -7 -18 -6 -18 3 0 10 -2 10 -9 0 -11 -19 -15 -19 -34 -3
-13 10 -17 10 -17 1 0 -9 -3 -10 -13 -1 -8 6 -16 9 -18 7 -9 -9 -59 -15 -59
-7 0 4 -10 7 -22 5 -13 -1 -23 -3 -23 -4 0 -1 -8 -3 -17 -5 -10 -2 -18 2 -18
8 0 7 -5 5 -10 -3 -9 -13 -10 -13 -11 0 0 8 -2 23 -4 33 -2 9 1 17 6 17 6 0 8
4 4 9 -3 5 0 13 6 17 8 4 7 9 -2 15 -11 7 -11 9 -1 9 7 0 10 5 7 10 -3 6 0 10
7 10 9 0 9 3 -2 10 -8 5 -10 10 -5 10 6 0 11 8 12 18 1 17 10 73 13 82 1 3 3
16 3 30 1 16 8 25 19 25 9 0 19 3 22 6 9 9 36 7 36 -2z"/>
<path d="M4715 9679 c-4 -5 -12 -8 -19 -6 -16 6 -33 -15 -30 -38 2 -11 -2 -25
-8 -32 -5 -7 -8 -19 -5 -27 3 -8 0 -22 -8 -32 -9 -13 -10 -23 -3 -31 7 -9 7
-13 0 -13 -6 0 -9 -8 -8 -17 2 -10 -3 -40 -10 -68 -20 -71 -33 -130 -37 -175
-1 -14 -5 -29 -8 -35 -3 -5 -4 -20 -3 -32 0 -13 -2 -23 -7 -23 -4 0 -6 -9 -4
-20 2 -11 0 -22 -5 -25 -5 -3 -6 -13 -3 -22 4 -9 2 -14 -3 -10 -6 3 -9 -7 -8
-24 1 -16 -3 -29 -9 -29 -7 0 -6 -4 2 -9 12 -8 12 -12 2 -25 -7 -8 -9 -21 -5
-27 5 -9 2 -10 -9 -6 -14 5 -15 3 -5 -13 8 -13 9 -22 1 -32 -6 -7 -9 -21 -8
-30 2 -10 -1 -18 -6 -18 -6 0 -7 -4 -4 -10 3 -5 3 -16 -2 -22 -4 -7 -8 -22 -8
-33 0 -11 -4 -26 -8 -32 -5 -8 -3 -13 5 -13 10 0 10 -2 -1 -9 -8 -5 -16 -31
-18 -63 -6 -79 -6 -78 -12 -78 -4 0 -8 -12 -9 -27 -1 -15 -8 -30 -15 -35 -8
-5 -9 -8 0 -8 8 0 8 -13 -2 -50 -7 -27 -11 -50 -8 -50 3 0 -1 -8 -8 -17 -12
-14 -12 -15 -1 -9 11 7 12 4 3 -13 -7 -12 -9 -26 -6 -31 3 -6 2 -10 -3 -10 -5
0 -9 -6 -10 -12 0 -7 -4 -26 -8 -43 -4 -16 -7 -42 -7 -57 1 -15 -3 -25 -8 -22
-12 7 -7 -16 5 -31 11 -13 418 -16 410 -4 -2 4 1 11 7 14 5 4 8 13 5 21 -3 8
-1 14 3 14 5 0 8 8 6 18 -1 9 2 28 8 42 5 14 10 36 11 50 1 14 4 30 7 35 4 6
5 20 4 33 -1 14 4 22 14 22 10 0 12 3 5 8 -6 4 -9 16 -7 27 3 11 5 30 6 43 1
15 6 21 15 17 12 -4 13 -3 3 9 -7 9 -9 21 -5 28 5 7 7 21 6 31 -2 9 2 17 7 17
6 0 11 5 11 11 0 5 -5 7 -11 3 -6 -3 -3 8 6 26 9 18 12 29 5 25 -9 -6 -9 -2 0
15 6 12 10 31 7 41 -4 13 0 19 11 19 10 0 13 3 7 8 -12 8 -13 27 -3 37 4 4 4
13 1 21 -3 8 -1 14 5 14 6 0 8 10 4 22 -3 11 -1 19 4 16 5 -4 10 10 11 30 2
33 8 67 13 82 1 3 2 8 1 13 0 4 5 7 11 7 10 0 9 3 -1 9 -11 7 -11 13 2 39 11
23 12 33 3 43 -8 9 -8 10 3 4 10 -6 12 -2 6 14 -4 12 -2 21 4 21 6 0 8 6 5 14
-3 8 -1 16 3 19 5 3 8 20 7 36 -1 17 1 31 4 31 4 0 8 10 9 23 3 48 15 112 21
117 4 3 7 17 7 33 -1 15 2 27 6 27 4 0 6 8 4 18 -1 9 3 23 9 31 9 12 8 13 -4
6 -12 -6 -12 -5 -3 5 6 7 9 19 6 28 -4 9 -2 13 4 9 5 -3 9 2 9 11 0 46 5 73
12 69 4 -3 7 11 6 31 l-1 37 -54 0 c-30 0 -59 3 -66 8 -6 4 -14 3 -17 -2 -8
-13 -56 -11 -56 3 0 6 -5 4 -10 -4 -9 -13 -11 -13 -20 0 -5 8 -10 10 -10 3 0
-12 -107 -13 -127 0 -6 4 -15 2 -18 -4z"/>
<path d="M10120 9683 c0 -7 -10 -10 -22 -8 -13 3 -28 1 -34 -3 -14 -9 -39 -57
-26 -48 6 4 8 -2 5 -14 -3 -11 -10 -17 -17 -13 -7 4 -7 1 1 -8 10 -12 9 -20
-3 -37 -9 -14 -11 -22 -4 -22 6 0 8 -5 5 -10 -4 -6 -11 -7 -17 -4 -6 4 -6 -2
1 -15 9 -16 9 -21 -1 -21 -9 0 -9 -3 2 -10 9 -6 10 -10 3 -10 -6 0 -10 -9 -8
-20 2 -11 0 -20 -4 -20 -4 0 -8 -18 -8 -40 0 -22 3 -37 8 -34 5 3 9 1 9 -5 0
-10 19 -9 38 2 7 5 12 3 12 -3 0 -7 6 -8 19 0 11 5 22 7 24 3 7 -10 109 -9
126 1 8 5 16 3 21 -5 7 -10 11 -10 24 0 13 11 16 11 16 0 0 -11 2 -11 10 1 9
13 10 13 10 0 0 -13 1 -13 10 0 5 8 10 10 10 3 0 -7 14 -10 38 -7 50 4 85 -5
74 -20 -5 -6 -8 -21 -7 -33 1 -13 -2 -23 -7 -23 -5 0 -8 -6 -7 -12 3 -27 -1
-39 -13 -32 -7 5 -8 3 -2 -7 12 -19 14 -38 5 -44 -4 -2 -7 -18 -6 -34 1 -17
-2 -28 -6 -25 -8 4 -9 -2 -10 -63 -1 -18 -5 -30 -10 -27 -8 5 -14 -42 -10 -75
2 -7 -1 -11 -6 -8 -5 3 -8 -12 -8 -34 0 -21 -4 -39 -9 -39 -5 0 -6 -3 -3 -7 4
-3 1 -13 -6 -21 -10 -13 -9 -14 1 -8 11 7 12 4 3 -13 -7 -12 -9 -26 -6 -31 3
-6 -2 -10 -12 -10 -10 0 -14 -4 -8 -8 13 -9 18 -32 7 -32 -5 0 -8 -15 -8 -32
1 -18 -6 -39 -14 -46 -8 -8 -9 -11 -2 -7 14 7 17 -21 3 -29 -5 -3 -8 -17 -8
-32 0 -14 -7 -30 -14 -35 -12 -7 -12 -9 0 -9 11 0 11 -3 1 -15 -7 -8 -10 -22
-6 -30 3 -8 1 -15 -4 -15 -5 0 -7 -7 -4 -15 3 -8 2 -20 -2 -27 -5 -7 -9 -24
-10 -38 -1 -14 -2 -35 -3 -48 0 -13 -4 -21 -8 -19 -5 3 -9 -9 -11 -26 -4 -48
-7 -66 -15 -73 -11 -12 -8 -26 4 -18 8 4 8 0 0 -15 -14 -26 -35 -23 215 -26
137 -1 201 2 202 9 2 31 15 72 25 85 9 12 9 13 0 7 -7 -4 -13 -3 -13 3 0 5 4
12 9 16 6 3 8 14 6 25 -2 11 0 20 5 20 5 0 6 7 3 17 -5 12 -3 14 8 8 11 -6 12
-5 2 5 -7 8 -9 19 -4 29 5 9 7 24 6 34 -2 9 0 17 4 17 4 0 8 10 9 23 3 50 13
92 22 95 6 2 6 10 0 22 -7 13 -7 21 1 25 6 4 8 13 5 21 -3 7 3 18 12 23 10 6
12 11 5 11 -7 0 -13 5 -13 11 0 5 4 8 8 5 5 -3 7 11 6 30 -2 19 1 34 5 34 5 0
7 12 5 26 -2 19 1 24 12 20 10 -4 13 -2 7 6 -11 18 -11 48 0 48 5 0 7 6 4 14
-3 7 0 19 6 26 9 10 9 11 -3 5 -12 -7 -13 -6 -3 6 12 15 13 18 13 55 0 17 4
23 13 18 9 -5 9 -4 0 6 -8 9 -9 19 -2 32 5 10 7 23 4 28 -3 5 3 13 12 19 11 6
13 11 5 11 -8 0 -10 5 -5 13 4 6 6 20 5 30 -2 9 0 17 5 17 4 0 9 12 10 28 0
15 4 38 7 52 3 14 8 43 11 65 2 22 9 41 15 43 6 2 8 8 5 13 -4 5 9 7 27 6 18
-2 39 1 46 6 8 6 12 6 12 -2 0 -8 5 -9 17 -2 10 5 26 5 40 0 16 -6 23 -5 23 4
0 8 3 8 9 -2 6 -10 13 -10 28 -2 11 5 23 7 27 4 10 -10 66 -10 73 0 3 5 9 3
14 -4 7 -11 9 -11 9 1 0 13 2 13 9 1 8 -12 12 -12 25 -2 9 8 16 9 16 4 0 -5 7
-10 15 -10 8 0 15 5 15 11 0 6 4 5 9 -2 7 -12 12 -12 30 0 12 7 19 19 16 27
-3 8 6 3 19 -11 25 -25 50 -29 75 -14 8 5 16 3 21 -5 7 -10 11 -10 24 0 13 11
16 11 16 0 0 -11 2 -11 10 1 5 8 10 10 10 4 0 -10 21 -11 55 -4 6 1 12 1 15 0
15 -5 62 -5 66 1 2 4 17 4 33 -1 19 -5 33 -4 40 3 8 8 11 7 11 -4 0 -12 2 -12
10 1 5 8 10 10 10 4 0 -6 11 -10 25 -9 14 2 27 -1 31 -6 3 -5 -1 -9 -8 -9 -10
0 -10 -2 1 -9 8 -5 9 -11 3 -15 -6 -4 -9 -15 -7 -26 2 -11 -1 -20 -7 -20 -6 0
-8 -3 -5 -7 4 -3 1 -13 -6 -21 -10 -13 -9 -14 3 -7 12 7 13 6 4 -6 -6 -8 -10
-24 -9 -36 1 -13 -2 -23 -7 -23 -5 0 -6 -4 -3 -10 3 -5 3 -16 -1 -22 -8 -12
-13 -38 -15 -68 0 -8 -3 -22 -6 -30 -3 -8 -7 -28 -9 -44 -3 -17 -10 -34 -17
-38 -9 -6 -9 -8 0 -8 7 0 10 -10 6 -27 -3 -16 -6 -34 -6 -40 0 -7 -4 -13 -8
-13 -5 0 -6 -13 -4 -30 2 -16 0 -30 -5 -30 -5 0 -7 -9 -5 -20 2 -11 -1 -20 -7
-20 -6 0 -8 -3 -5 -7 4 -3 1 -13 -6 -21 -10 -13 -9 -14 3 -7 12 7 13 6 4 -6
-6 -8 -10 -22 -9 -31 2 -10 0 -18 -5 -18 -4 0 -6 -9 -3 -20 3 -13 0 -20 -8
-20 -11 0 -11 -2 1 -10 8 -5 10 -10 4 -10 -6 0 -10 -15 -9 -35 1 -25 -3 -35
-13 -35 -12 0 -12 -3 -2 -15 7 -9 8 -15 2 -15 -6 0 -9 -8 -7 -17 1 -10 0 -22
-3 -28 -7 -12 -12 -40 -15 -77 -1 -18 -7 -28 -17 -28 -13 0 -13 -2 -1 -9 10
-7 12 -13 5 -23 -6 -7 -10 -25 -9 -40 0 -16 -2 -28 -5 -28 -3 0 -6 -17 -7 -38
l-1 -38 206 2 c114 0 210 2 213 3 3 0 5 12 4 26 -2 14 1 25 6 25 5 0 8 3 8 8
-1 4 -1 9 1 12 1 3 3 21 5 41 1 20 6 51 11 70 4 19 9 42 10 52 1 9 2 18 4 20
2 2 7 27 15 76 3 19 8 39 13 45 4 6 7 22 7 36 0 14 5 28 10 32 6 5 6 8 -2 8
-6 0 -9 9 -6 20 3 11 8 20 12 20 4 0 7 10 7 23 -1 47 14 108 25 101 8 -4 7 0
0 15 -8 15 -9 21 -1 21 6 0 8 5 5 10 -3 6 -1 10 6 10 8 0 8 4 -1 15 -7 8 -9
15 -4 15 5 0 10 15 11 33 3 33 10 72 14 72 2 0 7 25 12 60 2 11 5 25 9 30 3 6
4 20 3 33 -1 12 2 22 7 22 5 0 6 5 2 11 -3 6 0 15 7 20 11 6 11 9 1 9 -9 0 -7
8 5 27 10 15 12 24 6 20 -18 -11 -16 4 3 31 10 15 11 22 3 22 -9 0 -9 4 1 15
6 8 9 19 6 24 -8 13 13 26 44 27 14 0 32 4 39 8 8 5 16 4 21 -4 10 -17 15 -17
33 -1 11 8 17 9 17 2 0 -7 8 -8 25 -1 18 7 25 6 25 -3 0 -8 3 -8 9 2 6 9 10
10 12 2 3 -9 12 -9 32 -2 20 8 27 7 27 -2 0 -8 4 -7 10 3 5 8 10 10 10 4 0
-11 59 -12 77 -1 5 3 15 2 23 -3 16 -10 42 -2 53 17 5 7 12 11 16 8 5 -2 7 7
5 20 -1 14 1 27 6 30 4 2 6 16 5 30 -2 14 0 25 4 25 4 0 8 12 8 28 2 48 7 72
14 72 4 0 6 11 4 25 -1 14 2 25 8 25 6 0 7 3 4 7 -4 3 -2 12 4 19 9 11 6 16
-12 23 -13 5 -28 7 -32 4 -4 -3 -15 1 -24 9 -9 7 -14 8 -10 2 9 -15 -75 -14
-85 1 -5 6 -8 6 -8 -2 0 -13 -57 -12 -79 1 -9 6 -12 5 -8 -1 4 -6 -4 -10 -18
-10 -14 0 -28 4 -31 9 -3 5 -11 5 -17 0 -17 -12 -59 -13 -51 -1 3 6 -4 5 -15
-3 -18 -11 -23 -11 -31 2 -6 10 -10 11 -10 3 0 -7 -7 -13 -15 -13 -8 0 -15 6
-15 13 0 8 -3 9 -8 1 -8 -13 -61 -13 -81 0 -9 6 -12 5 -8 -1 4 -6 -8 -10 -28
-10 -19 0 -35 5 -35 11 0 7 -3 7 -8 1 -11 -16 -34 -17 -43 -3 -6 8 -9 9 -9 2
0 -6 -11 -11 -25 -11 -14 0 -22 4 -18 10 4 6 1 7 -8 1 -23 -14 -49 -15 -49 -1
0 7 -3 8 -8 2 -11 -16 -34 -17 -43 -3 -6 8 -9 9 -9 2 0 -6 -11 -11 -25 -11
-14 0 -22 4 -18 10 4 6 1 7 -8 1 -22 -13 -43 -14 -51 -1 -5 8 -8 9 -8 1 0 -13
-58 -13 -79 0 -9 6 -12 5 -8 -1 4 -6 -8 -10 -28 -10 -19 0 -35 5 -35 11 0 7
-3 7 -8 1 -11 -16 -34 -17 -43 -3 -6 8 -9 9 -9 2 0 -6 -11 -11 -25 -11 -14 0
-22 4 -18 10 4 6 1 7 -8 2 -22 -14 -90 -15 -82 -2 4 8 2 8 -9 0 -8 -7 -18 -10
-21 -6 -4 3 -7 2 -7 -4 0 -7 -12 -8 -33 -4 -18 5 -40 7 -50 5 -9 -1 -17 3 -17
9 0 8 -3 8 -8 2 -10 -13 -102 -14 -102 -1 0 6 -5 4 -10 -4 -8 -12 -13 -13 -29
-3 -10 6 -22 9 -26 5 -10 -11 -59 -9 -67 3 -5 7 -8 7 -8 0 0 -12 -74 -14 -85
-3 -4 4 -15 2 -25 -4 -14 -9 -22 -9 -33 0 -7 7 -17 9 -21 5 -10 -10 -66 -11
-72 -1 -3 5 -11 5 -17 1 -18 -11 -87 -10 -87 1 0 7 -3 8 -8 1 -11 -15 -32 -17
-32 -2 0 9 -2 9 -9 -1 -4 -8 -12 -14 -16 -14 -4 0 -12 6 -16 14 -6 9 -9 9 -9
1 0 -14 -40 -13 -40 2 0 6 -3 7 -8 0 -10 -13 -102 -14 -102 -1 0 6 -5 4 -10
-4 -8 -12 -13 -13 -29 -3 -10 6 -22 9 -25 6 -10 -10 -66 -11 -72 -1 -3 5 -11
5 -17 1 -19 -11 -60 -13 -73 -2 -7 6 -15 6 -18 1 -3 -5 -17 -9 -31 -9 -14 0
-22 4 -18 10 4 6 1 7 -8 1 -20 -12 -63 -12 -71 1 -5 6 -8 6 -8 -2z"/>
<path d="M13006 9682 c-4 -4 -22 -8 -39 -8 -56 -3 -59 -4 -53 -19 3 -8 2 -15
-2 -15 -4 0 -8 -21 -8 -46 -1 -27 -7 -50 -15 -55 -12 -7 -11 -9 1 -9 9 0 11
-3 5 -8 -10 -7 -16 -32 -16 -65 0 -9 -4 -15 -9 -12 -5 3 -12 0 -16 -6 -4 -8
-3 -9 4 -5 8 5 10 -6 6 -36 -3 -24 -6 -51 -7 -61 -1 -11 -7 -16 -17 -12 -10 3
-10 1 3 -9 10 -8 13 -16 8 -17 -10 -4 -19 -41 -23 -89 0 -8 -6 -18 -12 -22 -8
-6 -6 -11 4 -18 8 -5 10 -10 5 -10 -6 0 -12 -8 -13 -17 -3 -33 -7 -48 -16 -62
-7 -11 -6 -12 5 -6 11 7 12 6 3 -6 -6 -8 -10 -22 -9 -31 2 -10 -1 -18 -6 -18
-6 0 -7 -4 -4 -10 3 -5 -2 -22 -12 -37 -10 -15 -12 -24 -5 -20 15 10 15 3 -1
-31 -7 -15 -12 -39 -11 -54 0 -16 -4 -28 -10 -28 -6 0 -4 -5 4 -10 8 -5 10
-10 5 -10 -10 0 -16 -24 -19 -82 0 -14 -5 -24 -10 -20 -5 3 -7 -2 -3 -10 3 -9
3 -19 -1 -23 -8 -8 -9 -13 -11 -61 0 -20 -5 -33 -11 -29 -6 4 -7 -1 -3 -10 3
-10 0 -21 -8 -26 -9 -5 -9 -9 -2 -9 15 0 11 -23 -7 -46 -8 -10 -10 -15 -3 -11
8 5 11 1 10 -12 0 -11 -5 -17 -11 -14 -5 4 -7 -1 -3 -10 3 -10 2 -17 -4 -17
-6 0 -7 -5 -4 -10 4 -6 1 -17 -5 -25 -7 -8 -8 -15 -3 -15 9 0 2 -51 -15 -100
-9 -29 -16 -83 -13 -106 1 -7 70 -10 209 -9 158 0 206 3 205 13 -2 6 2 12 8
12 5 0 7 5 4 10 -4 6 -2 16 3 23 5 7 8 20 7 30 -2 9 2 17 8 17 7 0 5 5 -3 10
-8 5 -10 10 -4 10 7 0 12 6 11 13 -1 40 4 58 16 51 9 -5 9 -4 0 6 -7 8 -9 20
-3 35 5 13 6 26 3 29 -3 3 -1 12 5 19 7 8 9 17 5 20 -3 4 -1 7 7 7 10 0 10 3
0 15 -10 12 -10 15 0 15 7 0 10 7 6 15 -3 8 -2 15 3 15 4 0 7 16 6 35 -1 19 2
35 5 35 4 0 7 12 8 28 0 46 2 53 11 48 4 -3 6 6 3 21 -3 16 -1 24 5 20 6 -4 9
5 7 24 -2 16 0 28 4 25 4 -2 7 16 7 40 0 24 3 44 7 44 5 0 7 3 7 8 -1 4 -1 20
0 35 1 19 5 26 14 21 9 -5 9 -4 0 6 -8 9 -9 19 -2 31 5 10 9 22 8 26 -3 20 2
34 11 28 6 -3 10 -1 10 4 0 6 -6 11 -12 11 -9 0 -9 3 -3 8 6 4 11 15 12 25 0
9 1 29 2 43 1 17 5 23 14 18 9 -5 9 -4 0 6 -8 9 -9 19 -2 31 5 10 9 22 8 26
-4 23 2 43 11 38 13 -8 8 18 -5 27 -6 5 -5 8 3 8 7 0 10 5 7 10 -3 6 0 10 7
10 9 0 9 3 -2 10 -11 7 -11 10 -2 10 7 0 10 5 7 10 -4 6 -1 17 5 25 8 10 9 15
2 15 -6 0 -9 7 -6 15 4 8 11 12 16 9 6 -4 5 3 -1 15 -9 16 -9 21 0 21 7 0 9 3
6 6 -3 4 -2 16 4 27 8 15 8 18 -1 12 -9 -5 -9 -3 -2 11 5 11 13 38 17 62 4 23
10 40 14 38 4 -3 6 9 5 27 -1 17 1 38 6 47 11 20 -8 35 -42 35 -16 -1 -28 4
-28 10 0 7 -3 7 -8 0 -10 -14 -115 -15 -124 -1 -6 8 -8 8 -8 0 0 -6 -11 -11
-25 -11 -14 0 -25 5 -25 11 0 7 -3 7 -8 -1 -8 -12 -29 -13 -48 0 -6 3 -14 3
-18 -1z"/>
<path d="M13888 9632 c-21 -2 -38 -7 -38 -13 0 -5 -5 -9 -11 -9 -5 0 -8 4 -5
9 4 5 -5 4 -19 -2 -27 -13 -34 -34 -10 -34 8 0 15 6 15 13 0 10 6 11 26 4 14
-6 23 -6 20 -1 -3 5 5 9 19 9 16 0 22 -5 18 -12 -4 -6 1 -5 11 3 15 13 19 13
27 0 7 -11 9 -11 9 0 0 11 3 11 16 0 9 -8 22 -14 28 -14 33 -1 76 -18 76 -30
0 -8 7 -11 20 -8 14 4 20 1 18 -7 -2 -8 8 -19 22 -27 14 -7 21 -13 15 -13 -5
0 1 -10 14 -20 13 -11 20 -20 15 -20 -4 0 1 -7 12 -16 10 -8 12 -13 4 -9 -12
5 -12 4 1 -7 9 -7 15 -23 14 -36 -1 -17 2 -21 14 -17 12 5 13 4 4 -6 -9 -9 -9
-19 3 -42 9 -16 11 -26 4 -22 -8 5 -10 -5 -5 -35 4 -26 3 -40 -3 -36 -6 3 -9
-2 -7 -11 1 -10 0 -22 -4 -28 -3 -5 -6 -16 -8 -24 -1 -8 -9 -18 -18 -23 -8 -5
-13 -13 -10 -18 3 -4 -2 -11 -11 -14 -9 -4 -14 -13 -10 -21 3 -8 2 -14 -2 -14
-20 3 -32 -2 -29 -13 1 -7 -4 -12 -10 -10 -7 1 -13 -6 -14 -15 0 -10 -3 -13
-6 -6 -3 10 -7 10 -18 0 -7 -7 -11 -15 -8 -19 2 -4 -3 -5 -11 -2 -9 3 -16 1
-16 -5 0 -6 -6 -8 -14 -5 -8 3 -17 0 -21 -6 -6 -9 -10 -9 -16 1 -7 11 -9 10
-9 -4 0 -10 -4 -15 -10 -12 -5 3 -10 0 -10 -7 0 -9 -3 -9 -10 2 -8 12 -10 11
-10 -6 0 -16 6 -20 23 -18 12 1 26 3 30 3 5 1 6 5 3 10 -4 5 4 7 16 3 21 -5
22 -4 8 14 -14 19 -14 19 8 0 20 -17 27 -15 23 6 0 4 6 5 14 2 8 -4 17 1 21 9
3 8 16 18 30 21 13 4 24 13 24 22 0 8 3 13 8 11 4 -3 13 1 20 9 7 8 9 14 5 14
-4 0 0 5 10 11 9 6 14 15 11 21 -5 7 -1 9 9 5 12 -4 14 -2 10 10 -4 10 -2 14
4 10 7 -4 10 0 8 10 -1 10 2 24 8 31 5 6 6 12 2 12 -4 0 -1 8 6 17 12 14 12
16 -1 9 -13 -7 -13 -6 0 6 11 9 15 33 15 81 0 37 -3 67 -7 67 -4 0 -5 7 -2 15
3 8 0 17 -8 20 -10 4 -13 15 -10 31 3 17 0 24 -9 22 -9 -2 -13 4 -11 16 2 10
-1 15 -6 12 -6 -3 -13 6 -16 19 -4 14 -11 23 -16 20 -6 -3 -10 -1 -10 5 0 6
-4 9 -9 5 -5 -3 -12 3 -16 14 -3 11 -13 25 -22 33 -12 9 -15 9 -9 1 12 -21 -8
-15 -24 7 -10 14 -16 16 -22 7 -6 -9 -8 -9 -8 1 0 6 -9 12 -20 12 -11 0 -20 6
-20 13 0 8 -4 7 -10 -3 -8 -12 -10 -12 -10 -1 0 8 -3 12 -6 9 -3 -4 -18 -3
-32 0 -15 4 -44 6 -64 4z"/>
<path d="M13764 9584 c5 -14 4 -15 -9 -4 -13 11 -18 10 -31 -9 -9 -12 -20 -18
-26 -15 -6 4 -9 1 -6 -7 3 -8 13 -16 23 -17 12 -3 15 0 10 9 -6 8 -4 11 6 7 8
-3 22 -1 30 6 17 12 21 46 6 46 -5 0 -6 -7 -3 -16z"/>
<path d="M13663 9526 c-6 -8 -9 -17 -6 -20 4 -3 -2 -6 -13 -7 -10 0 -14 -3 -7
-6 10 -3 10 -7 0 -18 -7 -7 -16 -10 -21 -7 -5 3 -6 0 -2 -6 3 -6 -1 -18 -10
-26 -8 -9 -12 -16 -8 -16 3 0 2 -6 -5 -13 -8 -10 -7 -17 1 -25 9 -9 7 -12 -7
-12 -11 0 -16 -4 -10 -8 6 -4 10 -13 10 -21 0 -8 7 -16 15 -18 12 -4 12 -3 1
5 -9 7 -10 12 -2 16 6 4 9 11 6 16 -3 5 3 13 12 19 10 6 12 11 6 11 -7 0 -13
5 -13 11 0 6 6 9 14 6 10 -4 14 0 11 12 -2 10 7 30 21 46 13 15 21 32 18 36
-3 5 2 9 11 9 9 0 15 5 13 12 -6 17 -21 19 -35 4z"/>
<path d="M13800 9436 c-7 -9 -17 -13 -22 -10 -6 4 -2 -6 8 -22 11 -15 13 -25
7 -21 -7 5 -13 4 -13 -2 0 -6 6 -11 13 -11 8 0 7 -4 -3 -10 -13 -9 -13 -10 0
-10 12 0 12 -2 2 -9 -8 -4 -14 -12 -14 -16 0 -4 6 -12 14 -16 10 -7 10 -9 0
-9 -10 0 -10 -5 -2 -20 10 -19 6 -24 -13 -21 -5 1 -6 -3 -2 -9 3 -6 11 -7 17
-4 7 5 7 1 0 -12 -6 -12 -7 -25 -1 -36 6 -11 5 -19 -3 -24 -7 -5 -8 -3 -3 6 5
8 4 11 -3 7 -17 -11 9 -53 32 -53 18 0 21 5 19 38 -1 24 3 38 10 38 7 0 4 5
-5 11 -20 11 -14 35 13 50 15 8 17 7 12 -8 -6 -15 -4 -16 9 -5 21 17 73 -1 64
-23 -3 -8 0 -17 6 -21 7 -5 8 -2 3 6 -5 9 -4 11 4 6 6 -4 9 -11 6 -16 -3 -5 6
-20 20 -34 14 -15 24 -30 21 -34 -2 -4 7 -9 20 -10 14 -1 23 2 19 7 -3 5 1 12
7 14 10 4 10 6 1 6 -7 1 -13 8 -13 16 0 8 -7 15 -16 15 -11 0 -14 6 -9 20 4
14 2 20 -7 18 -7 -2 -12 3 -10 10 1 6 -3 12 -8 12 -6 0 -5 8 2 20 7 11 19 20
26 20 7 0 10 5 7 10 -3 6 -1 10 4 10 6 0 11 14 11 30 0 17 5 30 13 30 6 1 2 6
-11 13 -12 7 -19 16 -16 20 4 4 2 7 -5 7 -7 0 -10 4 -7 8 5 9 -1 10 -49 13
-15 1 -22 6 -18 13 4 6 0 5 -9 -2 -13 -10 -17 -10 -21 0 -4 11 -6 10 -6 0 -1
-8 -6 -10 -13 -5 -20 12 -58 11 -58 -1 0 -6 -4 -6 -9 2 -6 10 -10 10 -21 -2z
m106 -35 c4 8 9 7 15 -2 6 -9 9 -10 9 -2 0 8 8 7 29 -3 37 -19 47 -66 17 -84
-27 -17 -129 -23 -119 -7 5 8 2 8 -8 0 -13 -10 -16 -10 -16 5 0 9 5 23 11 31
8 11 8 13 -1 8 -6 -4 -14 -3 -18 3 -3 5 -2 10 3 10 6 0 8 9 5 19 -6 22 22 33
49 19 10 -5 19 -4 24 3z"/>
<path d="M13577 9307 c11 -19 11 -47 -1 -47 -7 0 -8 -3 -1 -8 12 -8 13 -22 2
-39 -4 -6 -2 -15 4 -19 8 -5 9 -3 4 6 -5 8 -4 11 3 6 6 -4 9 -13 6 -21 -3 -8
1 -22 10 -31 9 -8 14 -20 11 -25 -4 -5 -1 -9 5 -9 7 0 10 -7 7 -14 -4 -10 -1
-13 9 -9 9 3 14 -2 14 -16 0 -12 3 -20 8 -20 22 4 31 -3 25 -18 -3 -10 -3 -15
2 -11 4 4 14 0 22 -10 10 -11 12 -12 8 -2 -4 10 -2 9 8 -2 8 -10 17 -15 20
-11 4 3 7 1 7 -6 0 -7 5 -9 10 -6 6 3 10 -1 10 -10 0 -9 5 -13 11 -9 6 3 15 0
20 -7 7 -12 9 -11 9 1 1 11 4 10 15 -4 11 -14 15 -15 14 -5 -1 21 -17 57 -18
40 -1 -11 -5 -10 -17 5 -8 10 -12 12 -8 4 6 -11 2 -10 -13 3 -11 9 -25 17 -31
17 -7 0 -12 5 -12 10 0 6 -7 10 -16 10 -8 0 -12 5 -9 10 3 6 -1 10 -9 10 -9 0
-16 6 -16 13 0 7 -9 18 -20 25 -12 7 -18 17 -15 22 4 6 -1 13 -9 16 -9 3 -16
15 -16 26 0 13 -4 17 -12 12 -10 -6 -10 -4 0 8 10 13 10 17 -4 22 -9 4 -14 9
-11 13 4 3 2 12 -4 20 -6 7 -7 13 -2 13 17 0 9 49 -9 53 -12 3 -16 1 -11 -6z"/>
<path d="M13844 8987 c3 -10 6 -22 6 -26 0 -3 17 -6 37 -6 27 1 39 6 41 18 4
18 -13 23 -23 7 -4 -7 -13 -7 -26 0 -10 6 -19 7 -19 3 0 -4 -5 -1 -11 7 -9 12
-10 12 -5 -3z"/>
<path d="M750 8003 c0 -8 -11 -11 -30 -9 -16 2 -30 0 -30 -4 0 -4 -6 -8 -12
-7 -33 1 -45 -6 -66 -37 -22 -32 -39 -121 -21 -110 5 3 11 -7 15 -21 3 -13 10
-22 15 -19 5 3 9 1 9 -5 0 -12 47 -27 69 -22 7 1 11 -1 8 -6 -3 -5 3 -9 13 -9
10 0 16 4 14 8 -7 11 4 10 28 -3 11 -6 18 -7 15 -2 -3 5 12 9 34 9 21 0 39 -4
39 -10 0 -7 3 -6 8 1 8 13 29 12 51 -1 9 -6 12 -5 7 2 -9 14 46 11 56 -3 5 -6
8 -6 8 2 0 13 18 12 39 -1 9 -6 12 -5 8 1 -4 6 6 10 23 11 17 0 30 -5 30 -11
0 -8 3 -8 8 -2 11 15 74 17 65 2 -5 -9 -3 -9 8 0 9 7 20 9 29 3 9 -5 19 -5 26
1 8 7 14 6 19 -1 3 -6 12 -7 18 -3 18 11 67 10 67 -1 0 -6 4 -5 9 2 11 19 15
19 34 4 11 -9 17 -10 22 -2 5 8 11 7 23 -2 9 -8 13 -8 9 -2 -9 15 55 14 65 -1
5 -6 8 -6 8 1 0 6 7 11 15 11 8 0 15 -5 15 -11 0 -6 4 -5 9 2 4 8 12 14 16 14
4 0 12 -6 16 -14 5 -7 9 -8 9 -2 0 12 41 11 61 -2 7 -4 9 -3 5 4 -4 7 1 10 14
9 11 -1 20 -6 20 -11 0 -6 5 -5 12 2 16 16 31 15 22 0 -6 -10 -4 -10 8 0 12 9
18 10 23 2 5 -8 10 -8 20 0 10 8 15 8 20 0 5 -8 10 -8 20 0 10 8 15 8 20 0 5
-8 10 -8 20 0 10 8 15 8 20 0 5 -8 10 -8 20 0 7 6 16 7 19 2 6 -10 36 -9 53 1
6 4 15 3 18 -3 5 -8 11 -7 21 1 11 9 17 9 28 0 10 -9 16 -9 21 -1 4 6 12 7 18
2 14 -10 27 -10 44 1 6 4 14 3 17 -1 6 -10 36 -9 53 1 6 4 15 3 18 -3 5 -8 11
-7 21 1 11 9 14 8 14 -2 0 -11 2 -11 9 0 8 12 12 12 24 2 11 -9 17 -9 22 0 6
8 10 7 16 -2 6 -9 9 -10 9 -2 0 12 17 12 35 1 6 -4 17 -3 25 2 8 5 22 5 32 -1
13 -7 18 -6 18 2 0 9 3 9 14 0 10 -9 16 -9 21 -1 5 8 11 7 23 -2 12 -10 14
-10 8 0 -4 6 -3 12 3 12 5 0 13 -5 16 -10 5 -8 11 -7 21 1 11 9 14 8 14 -2 0
-12 2 -12 9 0 6 9 10 10 16 2 5 -9 10 -9 20 -1 10 8 15 8 20 0 5 -8 11 -8 21
1 11 9 14 9 14 -1 0 -10 3 -10 15 0 12 10 15 10 15 -1 0 -12 2 -12 9 0 6 9 10
10 16 2 5 -9 11 -9 22 0 12 10 16 10 24 -2 7 -11 9 -11 9 0 0 11 3 11 15 1 8
-7 15 -8 15 -3 0 5 7 10 15 10 8 0 12 -4 9 -9 -8 -12 10 -10 24 4 9 9 12 9 12
-2 0 -12 2 -13 9 -1 6 9 11 10 15 2 5 -8 13 -8 27 -1 14 8 19 7 19 -2 0 -8 3
-9 8 -3 11 15 32 17 32 3 0 -9 3 -9 9 1 7 11 13 12 23 3 11 -9 17 -9 26 0 9 9
12 9 12 -2 0 -12 2 -12 9 -2 4 8 12 14 16 14 4 0 12 -6 16 -14 7 -11 9 -11 9
1 0 9 4 10 13 5 15 -11 38 -11 55 -1 7 5 12 3 12 -5 0 -10 2 -10 9 1 6 9 10
10 16 2 5 -9 11 -9 22 0 12 10 16 10 24 -2 6 -10 9 -10 9 -1 0 14 21 12 32 -3
5 -6 8 -5 8 4 0 10 3 11 14 2 10 -8 16 -9 21 -1 3 6 12 7 18 3 17 -10 47 -11
41 -1 -3 4 -1 8 5 8 5 0 13 -5 16 -10 5 -8 11 -7 21 1 11 9 14 8 14 -2 0 -9 3
-10 8 -4 11 15 32 17 32 3 0 -10 3 -9 9 1 6 9 10 10 16 2 5 -9 10 -9 21 0 11
9 14 9 14 -1 0 -10 3 -10 15 0 12 10 15 10 15 0 0 -10 3 -10 15 0 12 10 15 10
15 -1 0 -12 2 -12 9 0 6 9 10 10 16 2 5 -9 10 -9 21 0 11 9 14 9 14 -1 0 -10
3 -10 15 0 11 9 15 9 15 1 0 -8 5 -9 18 -2 13 7 23 6 30 -1 9 -9 12 -9 12 1 0
7 5 9 12 5 19 -12 48 -12 48 -1 0 5 6 5 13 -2 10 -8 17 -7 25 1 9 9 12 9 12
-1 0 -10 3 -11 14 -2 9 7 17 8 20 2 7 -11 25 -9 45 4 10 5 16 4 19 -4 3 -9 7
-9 18 0 11 9 14 9 14 -1 0 -10 3 -10 15 0 12 10 15 10 15 0 0 -10 3 -10 15 0
12 10 15 10 15 0 0 -10 3 -10 15 0 12 10 15 10 15 -1 0 -11 2 -11 10 1 8 12
10 12 10 1 0 -10 3 -11 14 -2 10 9 16 9 21 1 5 -8 10 -8 20 0 10 8 14 7 18 -2
4 -11 6 -11 6 0 1 8 7 10 19 5 21 -10 43 -10 60 0 7 5 12 3 12 -4 0 -8 4 -8
15 1 12 10 15 10 15 0 0 -10 3 -10 15 0 11 9 15 9 15 1 0 -8 5 -9 19 -1 12 6
22 6 25 1 7 -11 25 -9 45 3 8 5 16 4 21 -4 5 -9 9 -9 14 -1 4 6 14 8 24 3 21
-10 73 -9 90 1 7 5 12 3 12 -4 0 -9 3 -9 14 0 10 9 16 9 21 1 5 -8 10 -8 20 0
10 8 14 7 18 -2 4 -11 6 -10 6 0 1 7 6 10 12 7 17 -11 59 -13 65 -3 3 5 12 4
20 -3 11 -9 14 -9 14 1 0 9 3 10 13 1 10 -8 17 -7 25 1 9 9 12 9 12 -1 0 -10
3 -11 13 -2 10 8 17 7 25 -1 9 -9 12 -9 12 1 0 10 3 11 14 2 11 -9 15 -9 19 1
4 10 7 10 15 -1 7 -9 12 -10 16 -2 4 6 12 8 18 5 17 -10 89 -11 95 -1 3 5 9 3
14 -4 8 -12 10 -12 18 0 5 8 11 9 15 3 5 -8 41 -10 41 -2 0 1 10 3 23 4 12 2
22 -2 22 -7 0 -5 6 -4 14 2 11 9 15 9 19 -1 4 -10 6 -10 6 1 1 11 4 11 16 1
12 -10 15 -10 15 0 0 10 3 10 14 1 11 -9 16 -9 21 0 6 8 10 7 16 -2 8 -12 10
-12 18 0 5 8 11 9 15 3 7 -12 24 -11 45 3 10 5 16 4 19 -4 3 -9 7 -9 18 0 11
9 14 9 14 -1 0 -10 3 -10 14 -1 11 9 15 9 18 -1 4 -10 8 -10 21 1 13 10 17 10
17 1 0 -10 3 -10 15 0 11 9 15 9 15 1 0 -8 5 -9 19 -1 12 6 22 6 25 1 5 -7 41
-8 41 -1 0 1 10 3 23 4 12 2 22 -2 22 -7 0 -5 7 -4 15 3 12 10 15 10 15 0 0
-10 3 -10 14 -1 8 7 17 8 20 3 5 -9 57 -7 84 3 6 2 12 -1 12 -7 0 -7 4 -7 13
1 10 8 17 7 25 -1 8 -8 15 -8 27 2 12 10 15 10 15 0 0 -10 3 -10 15 0 11 9 15
9 15 1 0 -8 5 -9 19 -1 12 6 22 6 25 1 7 -11 25 -9 45 3 8 5 16 4 21 -4 5 -9
9 -9 14 -1 4 6 14 8 24 3 21 -10 73 -9 90 1 7 5 12 3 12 -4 0 -9 3 -9 14 0 10
9 16 9 21 1 5 -8 10 -8 20 0 10 8 14 7 18 -2 4 -11 6 -10 6 0 1 7 6 10 12 7
17 -11 59 -13 65 -3 3 5 12 4 20 -3 11 -9 14 -9 14 1 0 9 3 10 13 1 10 -8 17
-7 25 1 9 9 12 9 12 0 0 -10 5 -10 20 -2 15 8 20 8 20 -1 0 -9 3 -9 14 0 11 9
15 9 19 -1 4 -11 6 -11 6 0 1 9 6 10 19 3 10 -5 24 -6 32 -1 8 5 22 4 32 -1
13 -7 18 -6 18 2 0 8 4 9 13 0 10 -8 17 -7 25 1 9 9 12 9 12 -3 0 -11 2 -11 9
-1 11 17 21 17 32 0 7 -11 9 -11 9 1 0 11 3 11 15 1 12 -10 15 -10 15 0 0 10
3 10 15 0 12 -10 15 -10 15 0 0 10 3 10 15 0 12 -10 15 -10 15 1 0 10 3 10 12
1 7 -7 17 -8 30 -1 13 7 18 6 18 -3 0 -10 2 -10 9 1 6 9 11 10 15 2 4 -6 13
-8 19 -4 18 11 47 11 47 0 0 -5 6 -4 14 2 8 7 17 8 20 3 5 -9 87 -8 112 2 8 3
14 0 14 -6 0 -7 5 -6 15 2 12 10 15 10 15 -1 0 -11 2 -11 10 1 8 12 10 12 10
1 0 -11 3 -11 15 -1 11 9 15 9 15 1 0 -9 5 -9 21 0 16 8 20 8 14 -1 -6 -9 -2
-9 14 -1 16 9 21 9 21 -1 0 -10 2 -10 9 1 6 9 10 10 16 2 5 -9 11 -9 23 1 12
11 16 11 20 0 3 -10 7 -10 18 -1 11 9 14 9 14 -1 0 -10 3 -10 14 -1 11 9 15 9
19 -1 4 -10 7 -10 14 -1 5 8 14 9 23 3 9 -5 19 -5 27 2 9 7 13 7 13 -2 0 -10
3 -10 15 0 12 10 15 10 15 -1 0 -12 2 -12 9 0 6 9 11 10 15 2 4 -6 13 -8 19
-4 18 11 47 11 47 0 0 -5 6 -5 13 2 10 8 17 7 25 -1 9 -9 12 -9 12 1 0 10 3
11 13 3 8 -7 18 -7 27 -2 8 5 21 5 32 -1 13 -7 18 -6 18 2 0 9 3 9 14 0 10 -9
16 -9 21 -1 5 8 11 7 23 -2 12 -10 14 -10 8 0 -9 15 6 16 22 0 9 -9 12 -9 12
1 0 11 3 11 15 1 10 -8 15 -9 15 -1 0 7 8 8 24 1 15 -5 27 -5 35 3 6 6 11 7
11 1 0 -5 9 -10 20 -10 11 0 20 4 20 9 0 5 6 4 14 -2 10 -9 16 -9 21 -1 5 8
11 7 23 -2 10 -8 13 -9 9 -1 -5 8 5 10 34 8 22 -2 43 -6 46 -9 4 -3 12 -1 19
5 8 7 14 7 19 -1 5 -8 11 -8 21 1 11 9 14 9 14 -1 0 -10 3 -10 15 0 12 10 15
10 15 -1 0 -12 2 -12 9 0 6 9 11 10 15 2 4 -6 13 -8 19 -4 7 4 22 8 35 8 16 1
21 -3 17 -14 -4 -11 0 -10 15 4 11 10 20 14 20 8 0 -5 7 -10 15 -10 8 0 15 3
15 7 0 4 7 7 15 7 8 0 15 -3 15 -6 0 -9 43 -7 57 2 6 4 14 1 16 -5 4 -10 6 -9
6 1 1 11 4 11 18 0 11 -10 14 -10 9 -1 -4 6 -2 12 3 12 6 0 11 -6 11 -12 0
-10 3 -9 9 1 6 9 10 10 16 2 5 -9 11 -9 22 1 19 15 23 15 34 -4 7 -11 9 -11 9
1 0 11 3 11 15 1 8 -7 15 -9 15 -4 0 5 11 9 25 9 14 0 25 -4 25 -10 0 -5 4 -4
9 4 6 9 10 10 16 2 5 -9 10 -9 21 0 10 8 18 8 27 0 10 -8 17 -7 25 1 9 9 12 9
12 -2 0 -12 2 -12 9 -2 4 8 12 14 16 14 4 0 12 -6 16 -14 7 -10 9 -10 9 0 0 8
6 10 18 5 21 -10 53 -10 69 0 6 4 15 3 18 -3 5 -8 11 -7 22 1 12 10 16 10 24
-2 5 -8 9 -9 9 -3 0 6 7 11 15 11 8 0 15 -5 15 -11 0 -6 4 -5 9 2 11 17 21 17
32 0 7 -10 9 -10 9 0 0 8 5 10 12 6 17 -11 48 -12 42 -2 -3 4 -1 8 5 8 5 0 13
-5 16 -10 5 -8 11 -8 20 0 10 8 15 8 20 0 5 -8 11 -8 21 1 11 9 14 8 14 -2 0
-12 2 -12 9 -1 11 17 21 17 32 0 6 -8 9 -9 9 -1 0 12 17 12 37 0 6 -4 15 -3
18 3 5 8 11 8 20 0 10 -8 15 -8 20 0 5 8 10 8 20 0 10 -8 15 -8 20 0 5 8 10 8
20 0 10 -8 15 -8 20 0 5 8 10 8 20 0 10 -8 15 -8 20 0 4 6 12 7 18 3 15 -10
38 -10 54 0 6 4 14 3 18 -2 3 -7 15 -7 30 -1 16 6 27 6 31 -1 4 -6 11 -6 20 2
11 9 14 8 14 -2 0 -11 2 -11 9 0 8 12 12 12 24 2 11 -9 17 -9 22 0 6 8 10 7
16 -2 7 -12 9 -12 9 0 0 10 3 11 14 2 10 -9 16 -9 21 -1 5 8 11 8 19 1 9 -7
16 -7 24 1 9 9 12 9 12 -1 0 -11 3 -11 15 -1 12 10 15 10 15 -1 0 -12 2 -12 9
0 6 9 10 10 16 2 5 -9 11 -9 22 0 12 10 16 10 24 -2 7 -11 9 -11 9 0 0 10 3
11 14 2 11 -9 16 -9 21 0 6 8 10 8 15 -2 7 -10 11 -10 24 0 13 11 16 11 16 0
0 -12 2 -12 9 0 6 9 11 10 15 2 5 -8 13 -8 26 -1 13 7 21 7 25 0 5 -8 11 -7
21 1 11 9 14 8 14 -2 0 -9 3 -10 8 -4 10 14 32 17 32 4 0 -8 4 -8 14 0 8 7 17
8 19 4 7 -10 48 -10 65 1 7 4 12 3 12 -1 0 -5 9 -9 20 -9 11 0 20 4 20 9 0 5
6 4 14 -2 11 -9 16 -9 21 0 6 8 10 7 16 -2 5 -8 9 -9 9 -4 0 6 9 11 20 11 11
0 20 -4 20 -9 0 -5 6 -4 14 2 11 9 15 9 19 -1 4 -10 6 -10 6 1 1 11 4 11 16 1
12 -10 15 -10 15 0 0 9 3 10 13 1 10 -8 17 -7 25 1 9 9 12 9 12 -1 0 -10 3
-11 14 -2 10 9 16 9 21 1 5 -8 10 -8 20 0 10 8 15 8 20 0 5 -8 11 -8 21 1 11
9 14 9 14 -1 0 -10 3 -10 14 -1 11 9 15 9 19 -1 4 -11 6 -11 6 0 1 10 6 10 21
2 15 -8 20 -8 20 1 0 8 4 9 13 0 10 -8 17 -7 25 1 9 9 12 9 12 -1 0 -11 3 -11
17 0 15 12 16 12 8 -1 -7 -13 -6 -13 7 -2 12 9 18 10 23 2 5 -8 11 -8 21 1 10
8 18 8 27 0 10 -8 17 -7 25 1 9 9 12 9 12 -2 0 -12 2 -12 9 -2 11 17 21 17 32
0 7 -10 9 -10 9 0 0 8 5 10 12 6 17 -11 48 -12 42 -2 -3 4 0 8 5 8 6 0 11 -6
11 -12 0 -8 3 -9 8 -3 11 15 32 17 32 3 0 -10 3 -9 9 1 6 9 10 10 16 2 5 -9
10 -9 20 -1 10 8 15 8 20 0 5 -8 11 -8 21 1 11 9 14 8 14 -2 0 -11 2 -11 10 1
9 13 10 13 10 0 0 -12 2 -12 9 -2 11 17 21 17 32 0 7 -11 9 -11 9 1 0 10 3 11
14 2 10 -8 16 -9 21 -1 3 6 12 7 18 3 17 -10 47 -11 41 -1 -3 4 -1 8 5 8 5 0
13 -5 16 -10 5 -8 11 -8 20 0 10 8 14 7 18 -2 4 -11 6 -11 6 0 1 9 6 10 20 2
14 -7 22 -7 26 0 4 6 12 7 18 3 15 -9 49 -9 64 0 6 4 15 3 18 -3 5 -8 11 -7
21 1 11 9 17 9 28 0 10 -9 16 -9 21 -1 5 8 10 8 20 0 10 -8 15 -8 20 0 5 8 10
8 20 0 10 -8 15 -8 20 0 5 8 11 7 23 -2 13 -11 14 -11 7 2 -8 13 -7 13 8 1 13
-10 17 -10 17 -1 0 10 3 10 14 1 10 -9 16 -9 21 -1 5 8 11 7 23 -2 13 -10 14
-10 8 0 -6 9 -1 11 19 8 15 -3 30 -7 33 -10 2 -3 13 -1 23 4 12 7 20 7 24 0 4
-6 13 -7 23 -1 11 6 24 6 35 0 12 -7 17 -6 17 2 0 9 3 9 14 0 10 -9 16 -9 21
-1 5 8 11 7 23 -2 12 -10 14 -10 8 0 -4 6 -3 12 3 12 5 0 13 -5 16 -10 5 -8
11 -7 21 1 11 9 14 8 14 -2 0 -9 3 -10 8 -4 8 12 27 13 38 3 4 -4 13 -3 21 3
7 6 13 7 13 2 0 -5 9 -9 20 -9 11 0 20 4 20 9 0 5 6 4 14 -2 10 -9 16 -9 21
-1 5 8 11 7 23 -2 9 -7 13 -8 9 -2 -4 8 3 11 23 10 17 0 30 -5 30 -11 0 -5 4
-4 9 3 11 17 21 17 32 0 7 -11 9 -11 9 1 0 11 3 11 15 1 8 -7 15 -9 15 -4 0 5
11 9 25 9 14 0 25 -4 25 -10 0 -5 4 -4 9 4 6 9 10 10 16 2 5 -9 10 -9 21 0 11
9 17 9 28 0 11 -9 16 -9 21 0 6 8 10 7 16 -2 6 -9 9 -10 9 -2 0 12 17 12 37 0
6 -4 14 -3 18 2 5 10 42 7 53 -4 3 -2 11 0 18 6 8 7 14 7 19 -1 5 -8 11 -8 21
1 11 9 17 9 28 0 10 -9 16 -9 21 -1 5 8 10 8 20 0 10 -8 15 -8 20 0 5 8 10 8
20 0 10 -8 15 -8 20 0 4 6 12 7 18 3 15 -10 38 -10 54 0 6 4 15 3 18 -3 5 -8
11 -7 21 1 11 9 17 9 28 0 10 -9 16 -9 21 -1 5 8 10 8 20 0 10 -8 15 -8 20 0
5 8 10 8 20 0 10 -8 15 -8 20 0 4 6 12 7 18 3 15 -10 38 -10 54 0 6 4 15 3 18
-3 5 -8 11 -7 21 1 10 8 18 8 27 1 8 -7 18 -7 27 -2 21 14 32 12 24 -2 -6 -10
-4 -10 8 0 12 9 18 10 23 2 5 -8 10 -8 20 0 10 8 15 8 20 0 5 -8 10 -8 20 0
10 8 15 8 20 0 5 -8 10 -8 20 0 10 8 15 8 20 0 5 -8 10 -8 20 0 10 8 15 8 20
0 5 -8 10 -8 20 0 7 6 16 7 19 2 6 -10 42 -9 52 1 4 4 14 1 22 -6 13 -9 14 -9
8 1 -8 13 19 13 41 -1 6 -4 15 -3 18 3 5 8 11 8 20 0 10 -8 15 -8 20 0 5 8 10
8 20 0 10 -8 15 -8 20 0 4 6 12 7 18 3 15 -10 38 -10 54 0 6 4 15 3 18 -3 5
-8 11 -7 21 1 10 8 18 8 27 1 8 -7 18 -7 27 -2 21 14 32 12 24 -2 -6 -10 -4
-10 8 0 12 9 18 10 23 2 5 -8 10 -8 20 0 10 8 15 8 20 0 5 -8 10 -8 20 0 9 8
15 8 20 0 4 -7 12 -7 26 0 14 8 19 7 19 -2 0 -10 3 -9 9 1 8 12 12 12 24 2 11
-8 17 -9 22 -1 3 6 12 7 18 3 17 -10 47 -11 41 -1 -7 11 3 10 28 -3 15 -8 19
-8 14 0 -8 12 21 11 41 -2 6 -4 15 -3 18 3 5 7 11 8 19 1 7 -6 17 -6 26 -1 21
14 32 12 24 -2 -6 -10 -5 -10 8 -1 8 7 18 10 22 6 10 -10 46 -11 40 -1 -7 11
3 10 28 -3 15 -8 19 -8 14 0 -8 12 21 11 42 -2 6 -5 12 -4 12 2 0 7 28 8 38 1
8 -7 29 -5 40 4 10 7 16 5 23 -5 5 -8 9 -9 9 -4 0 6 16 11 35 11 23 1 32 -2
28 -10 -4 -7 -2 -7 8 1 15 12 36 12 56 0 6 -4 15 -3 18 3 5 8 12 7 23 -2 12
-10 14 -10 8 0 -4 6 -2 12 3 12 6 0 11 -6 11 -12 0 -10 2 -10 9 0 4 8 12 14
16 14 4 0 12 -6 16 -14 5 -7 9 -8 9 -3 0 6 9 11 20 12 13 1 18 -2 13 -10 -4
-8 -1 -8 9 1 12 9 18 10 23 2 4 -6 12 -7 18 -2 14 10 27 10 44 -1 6 -4 15 -3
18 3 5 8 12 7 23 -2 12 -10 14 -10 8 0 -4 6 -2 12 3 12 6 0 11 -6 11 -12 0
-10 2 -10 9 0 4 8 12 14 16 14 4 0 12 -6 16 -14 5 -7 9 -8 9 -3 0 14 63 14 72
1 5 -8 8 -8 8 0 0 7 19 11 49 10 27 -1 48 0 46 2 -5 6 40 48 47 45 4 -2 5 6 3
17 -2 11 0 20 5 20 13 0 1 73 -13 82 -7 4 -9 8 -4 8 4 0 -1 8 -10 19 -10 10
-20 18 -23 18 -12 0 -46 17 -52 27 -5 8 -8 7 -8 -1 0 -14 -39 -14 -59 1 -11 8
-13 8 -8 0 4 -8 -11 -11 -48 -11 -35 1 -52 4 -48 11 5 7 2 7 -8 0 -18 -14 -52
-14 -61 0 -6 8 -8 8 -8 0 0 -6 -18 -11 -40 -11 -26 0 -37 4 -33 11 5 7 2 7 -8
0 -18 -15 -71 -15 -62 -1 4 6 1 7 -8 1 -22 -14 -90 -14 -82 0 5 8 3 8 -8 0
-19 -14 -61 -16 -53 -2 5 7 2 8 -7 2 -21 -13 -129 -14 -129 0 0 8 -2 8 -8 0
-4 -6 -16 -11 -27 -11 -11 0 -23 5 -27 11 -6 8 -8 8 -8 0 0 -6 -11 -11 -25
-11 -14 0 -25 5 -25 11 0 8 -2 8 -8 0 -9 -14 -45 -14 -54 0 -6 8 -8 8 -8 0 0
-6 -11 -11 -25 -11 -14 0 -25 5 -25 11 0 8 -2 8 -8 0 -9 -14 -43 -14 -61 0
-11 8 -13 8 -8 0 4 -7 -7 -11 -33 -11 -26 0 -37 4 -33 11 5 8 3 8 -8 0 -20
-15 -61 -16 -52 -1 5 9 3 9 -8 1 -19 -14 -61 -16 -53 -2 5 7 2 8 -7 2 -21 -13
-99 -13 -99 0 0 7 -3 8 -8 1 -10 -15 -54 -17 -46 -3 5 7 2 8 -7 2 -22 -14 -90
-14 -82 0 4 6 -1 5 -10 -3 -14 -11 -20 -11 -34 0 -10 8 -14 9 -10 2 9 -15 -32
-14 -52 1 -11 8 -13 8 -8 0 4 -7 -2 -11 -18 -11 -14 0 -25 5 -25 11 0 7 -3 8
-8 1 -10 -15 -52 -16 -52 -2 0 8 -3 9 -8 1 -10 -14 -114 -15 -105 0 5 8 3 8
-8 0 -19 -14 -61 -16 -53 -2 5 7 2 8 -7 2 -20 -13 -92 -13 -108 0 -11 8 -13 8
-8 0 4 -7 -7 -11 -33 -11 -26 0 -37 4 -33 11 5 8 3 8 -8 0 -18 -14 -52 -14
-61 0 -6 8 -8 8 -8 0 0 -6 -11 -11 -25 -11 -14 0 -25 5 -25 11 0 7 -3 8 -8 1
-10 -15 -52 -16 -52 -2 0 8 -2 9 -8 1 -9 -14 -43 -14 -61 0 -11 8 -13 8 -8 0
4 -7 -7 -11 -33 -11 -26 0 -37 4 -33 11 4 6 -1 5 -10 -3 -14 -11 -20 -11 -34
0 -10 8 -14 9 -10 2 9 -15 -32 -14 -52 1 -11 8 -13 8 -8 0 8 -13 -131 -13
-152 0 -9 6 -12 5 -8 -1 9 -15 -134 -14 -152 1 -11 8 -13 8 -8 -1 5 -8 -9 -11
-48 -11 -34 1 -52 5 -48 11 4 6 1 7 -8 1 -21 -13 -89 -14 -89 0 0 8 -2 8 -8 0
-9 -14 -43 -14 -61 0 -11 8 -13 8 -8 0 4 -7 -7 -11 -33 -11 -24 0 -37 4 -33
10 4 6 1 7 -8 1 -21 -13 -89 -14 -89 0 0 7 -3 7 -8 -2 -9 -13 -38 -12 -61 2
-9 6 -12 5 -8 -1 4 -6 -9 -10 -33 -10 -26 0 -37 4 -33 11 5 8 3 8 -8 0 -18
-14 -50 -14 -68 0 -11 8 -13 8 -8 0 9 -15 -113 -15 -132 0 -11 8 -13 8 -8 0 9
-16 -133 -15 -152 0 -11 8 -13 8 -8 0 9 -16 -172 -15 -192 0 -11 8 -13 8 -8 0
4 -7 -7 -11 -33 -11 -26 0 -37 4 -33 11 5 8 3 8 -8 0 -21 -16 -72 -17 -63 -1
6 9 4 9 -7 1 -19 -15 -101 -15 -92 0 5 8 3 8 -8 0 -20 -15 -59 -15 -59 -1 0 8
-2 9 -8 1 -9 -14 -43 -14 -61 0 -10 7 -13 7 -8 0 4 -7 -12 -11 -49 -12 -37 0
-52 3 -48 10 5 7 2 8 -7 2 -21 -13 -92 -14 -108 -1 -11 9 -13 9 -8 0 10 -15
-52 -15 -72 1 -11 8 -13 8 -8 0 5 -8 -4 -12 -28 -12 -20 0 -35 5 -35 12 0 8
-2 8 -8 0 -10 -15 -114 -15 -105 0 3 6 0 5 -8 -1 -7 -7 -22 -13 -34 -13 -12 0
-27 6 -34 13 -8 6 -11 7 -8 1 4 -7 -7 -11 -33 -11 -26 0 -37 4 -33 11 5 8 3 8
-8 0 -20 -15 -59 -15 -59 -1 0 9 -2 9 -8 1 -9 -14 -74 -14 -84 1 -5 6 -8 6 -8
-2 0 -14 -39 -14 -59 1 -11 8 -13 8 -8 0 5 -8 -6 -12 -33 -12 -24 -1 -40 4
-40 11 0 9 -2 9 -8 1 -8 -13 -71 -13 -91 0 -10 6 -12 6 -6 -3 9 -15 -36 -11
-47 4 -5 6 -8 6 -8 -1 0 -7 -15 -12 -35 -12 -20 0 -35 5 -35 12 0 8 -2 8 -8 0
-9 -15 -63 -15 -81 0 -11 8 -13 8 -8 -1 5 -7 -4 -11 -28 -11 -20 0 -35 5 -35
12 0 8 -2 8 -8 0 -9 -15 -182 -15 -201 0 -11 8 -13 8 -8 0 5 -8 -6 -12 -33
-12 -29 -1 -38 3 -33 11 5 9 3 9 -8 1 -20 -15 -62 -15 -71 -1 -6 9 -8 9 -8 0
0 -7 -25 -11 -75 -10 -50 0 -72 4 -68 11 5 7 2 7 -8 0 -18 -14 -151 -15 -142
-1 4 6 1 7 -8 1 -21 -13 -83 -14 -91 0 -6 8 -8 8 -8 0 0 -15 -190 -15 -190 0
0 6 -5 4 -10 -4 -8 -13 -13 -13 -31 -2 -11 8 -18 9 -14 3 4 -7 -8 -10 -34 -9
-23 1 -41 6 -41 12 0 7 -3 8 -8 1 -9 -13 -74 -17 -66 -4 3 6 -3 5 -14 -2 -16
-10 -23 -10 -35 0 -9 7 -18 8 -21 3 -8 -13 -56 -12 -56 2 0 8 -2 8 -8 0 -4 -6
-29 -11 -57 -11 -27 0 -53 5 -57 11 -6 8 -8 8 -8 0 0 -15 -53 -15 -62 0 -6 8
-8 8 -8 -1 0 -8 -13 -12 -35 -11 -20 1 -32 5 -28 11 4 6 1 7 -8 1 -20 -13 -83
-13 -91 0 -6 8 -8 8 -8 0 0 -15 -53 -15 -62 0 -6 8 -8 8 -8 0 0 -7 -15 -12
-35 -12 -24 0 -33 4 -28 11 5 9 3 9 -8 1 -8 -7 -27 -12 -44 -12 -16 0 -36 5
-44 12 -11 8 -13 8 -8 -1 5 -7 -4 -11 -28 -11 -20 0 -35 5 -35 12 0 7 -3 7 -8
-2 -10 -14 -61 -13 -81 2 -11 8 -13 8 -7 -1 5 -10 -3 -12 -33 -11 -26 1 -38 5
-34 12 5 8 2 8 -8 0 -18 -14 -52 -14 -61 0 -6 8 -8 8 -8 0 0 -6 -11 -11 -25
-11 -16 0 -22 4 -18 11 5 8 3 8 -8 0 -20 -15 -61 -16 -52 -1 4 7 -1 6 -11 -2
-14 -12 -19 -12 -26 -2 -6 11 -8 11 -12 0 -4 -12 -8 -11 -23 1 -10 8 -16 10
-12 4 9 -16 -93 -16 -112 0 -11 8 -13 8 -8 -1 9 -15 -35 -14 -45 2 -5 7 -8 6
-8 -2 0 -6 -13 -11 -30 -11 -17 1 -27 5 -23 11 4 6 1 7 -7 2 -22 -14 -72 -16
-64 -3 5 7 3 8 -7 2 -22 -13 -42 -14 -58 -1 -10 8 -13 8 -8 1 5 -8 -6 -11 -33
-11 -22 0 -40 6 -40 11 0 8 -3 7 -8 0 -9 -14 -43 -14 -61 0 -11 8 -13 8 -8 0
9 -16 -125 -15 -135 0 -5 8 -8 7 -8 -1 0 -15 -99 -14 -119 1 -11 8 -13 8 -8 0
4 -7 -7 -11 -33 -11 -26 0 -37 4 -33 11 5 7 2 7 -8 0 -19 -15 -71 -15 -62 0 5
8 3 8 -8 0 -18 -14 -52 -14 -61 0 -6 8 -8 8 -8 0 0 -15 -130 -15 -149 0 -11 8
-13 8 -8 0 5 -8 -14 -11 -63 -11 -43 0 -70 4 -70 11 0 8 -2 8 -8 0 -8 -13
-111 -13 -131 0 -9 6 -12 5 -8 -1 4 -6 -4 -10 -18 -10 -14 0 -25 5 -25 11 0 7
-3 7 -8 1 -10 -15 -94 -16 -85 -1 4 6 -1 5 -10 -3 -14 -11 -20 -11 -34 0 -9 8
-14 9 -10 3 4 -7 -2 -11 -18 -11 -14 0 -23 3 -20 7 2 3 -2 7 -10 7 -8 0 -12
-3 -10 -7 2 -4 -11 -7 -30 -7 -19 0 -32 4 -29 9 4 5 -4 4 -15 -4 -18 -11 -23
-11 -31 2 -7 11 -10 11 -10 2 0 -15 -31 -12 -42 3 -5 6 -8 6 -8 -1 0 -15 -60
-16 -60 -1 0 8 -3 8 -8 2 -10 -15 -74 -16 -65 -1 5 8 3 8 -8 0 -19 -15 -71
-15 -62 0 5 8 3 8 -8 0 -19 -14 -61 -16 -53 -2 5 7 2 8 -7 2 -21 -13 -122 -14
-138 0 -11 8 -13 8 -8 -1 5 -7 -4 -11 -28 -11 -20 0 -35 5 -35 12 0 8 -2 8 -8
0 -10 -15 -114 -16 -105 0 3 6 1 6 -8 -1 -7 -7 -24 -13 -37 -13 -16 0 -21 4
-16 13 6 9 4 9 -7 1 -8 -6 -23 -11 -34 -11 -11 0 -26 5 -34 11 -11 8 -13 8 -8
0 4 -7 -2 -11 -18 -11 -14 0 -25 5 -25 11 0 7 -3 8 -8 1 -10 -15 -74 -16 -65
-1 5 8 3 8 -8 0 -19 -15 -71 -15 -62 0 5 8 3 8 -8 0 -8 -6 -23 -11 -34 -11
-11 0 -26 5 -34 11 -11 8 -13 8 -8 -1 9 -14 -31 -15 -50 -1 -6 5 -14 5 -17 0
-3 -5 -17 -9 -31 -9 -14 0 -22 4 -18 10 4 6 1 7 -8 1 -21 -13 -101 -15 -93 -2
5 7 2 8 -7 2 -22 -14 -250 -14 -242 0 5 8 3 8 -8 0 -18 -15 -139 -15 -158 0
-11 8 -13 8 -8 0 4 -8 -8 -11 -38 -11 -26 0 -45 5 -45 11 0 7 -3 7 -8 1 -11
-16 -34 -17 -43 -3 -6 9 -9 9 -9 1 0 -14 -42 -13 -52 2 -5 7 -8 6 -8 -1 0 -8
-30 -12 -95 -11 -64 0 -92 4 -88 11 5 7 2 7 -8 0 -18 -14 -52 -14 -61 0 -6 8
-8 8 -8 0 0 -14 -57 -16 -66 -3 -3 5 -11 6 -17 2 -21 -13 -88 -13 -80 0 5 9 3
9 -8 1 -8 -7 -53 -11 -104 -11 -51 0 -96 4 -104 11 -11 8 -13 8 -8 0 5 -8 -6
-12 -33 -12 -24 -1 -40 4 -40 11 0 9 -2 9 -8 1 -9 -15 -94 -15 -85 0 5 8 3 8
-8 0 -19 -14 -61 -16 -53 -2 5 7 2 8 -7 2 -21 -13 -81 -15 -73 -2 5 7 2 8 -7
2 -21 -13 -119 -14 -119 0 0 7 -3 6 -8 -2 -9 -13 -38 -12 -61 2 -9 6 -12 5 -8
-1 8 -13 -132 -12 -152 1 -10 6 -12 6 -7 -2 8 -14 -20 -12 -43 2 -9 6 -12 5
-8 -1 5 -7 -6 -11 -28 -11 -20 0 -35 5 -35 12 0 8 -2 8 -8 0 -9 -15 -143 -15
-161 0 -11 8 -13 8 -8 -1 10 -16 -81 -14 -102 1 -11 8 -13 8 -8 0 4 -7 -10
-11 -38 -11 -29 -1 -43 3 -38 10 4 6 1 7 -8 1 -22 -13 -43 -14 -51 -1 -5 8 -8
8 -8 1 0 -6 -14 -11 -30 -12 -21 0 -28 3 -23 11 5 9 3 9 -8 1 -16 -14 -87 -13
-108 0 -9 6 -12 5 -7 -2 8 -14 -34 -12 -53 2 -11 8 -13 8 -7 -2 6 -9 1 -12
-16 -10 -12 2 -29 7 -37 12 -9 6 -12 5 -7 -2 8 -14 -34 -12 -53 2 -11 8 -13 8
-7 -2 6 -9 1 -12 -16 -10 -12 2 -29 7 -37 12 -10 6 -12 5 -7 -2 8 -14 -20 -12
-43 2 -9 6 -12 5 -8 -1 5 -7 -6 -11 -28 -11 -20 0 -35 5 -35 12 0 8 -2 8 -8 0
-9 -15 -63 -15 -81 0 -11 8 -13 8 -8 -1 10 -15 -55 -15 -65 1 -6 8 -8 8 -8 0
0 -16 -80 -16 -80 -1 0 8 -3 9 -8 1 -10 -14 -113 -14 -105 0 5 8 2 7 -8 0 -18
-14 -52 -14 -61 0 -5 8 -8 7 -8 -1z"/>
<path d="M3513 7384 c-2 -7 -16 -12 -31 -12 -34 0 -51 -5 -79 -20 -13 -7 -23
-9 -23 -5 0 4 -7 -2 -15 -13 -8 -10 -15 -16 -15 -12 0 4 -13 -7 -30 -25 -16
-17 -37 -41 -47 -51 -10 -11 -12 -16 -5 -12 6 4 12 2 12 -3 0 -6 -4 -11 -10
-11 -5 0 -10 -12 -10 -26 0 -14 -4 -23 -8 -20 -5 3 -6 -9 -4 -26 3 -23 1 -29
-8 -23 -7 4 -5 -4 4 -18 13 -20 14 -26 4 -30 -11 -4 -11 -6 0 -6 7 -1 10 -5 7
-11 -3 -5 -1 -10 5 -10 6 0 9 -4 5 -9 -3 -5 0 -13 6 -16 5 -4 8 -14 4 -23 -3
-9 -3 -13 1 -9 4 4 17 -5 30 -18 13 -14 28 -25 34 -25 5 0 10 -4 10 -10 0 -5
7 -10 15 -10 8 0 15 -4 15 -9 0 -8 11 -12 63 -26 4 -2 9 -4 12 -5 3 -1 10 -4
15 -5 6 -1 12 -4 15 -5 8 -4 24 -7 41 -9 8 0 13 -4 11 -8 -3 -5 9 -8 27 -9 18
0 41 -4 52 -9 10 -4 28 -10 39 -12 48 -9 85 -25 79 -35 -4 -6 -2 -8 3 -5 16
10 96 -52 89 -68 -3 -8 -1 -17 3 -20 11 -6 20 -53 12 -61 -3 -3 -6 -9 -6 -12
-3 -35 -68 -107 -87 -96 -4 3 -8 1 -8 -5 0 -5 -9 -8 -20 -6 -11 2 -18 0 -15
-6 5 -7 -21 -13 -37 -8 -2 0 -15 -4 -30 -10 -20 -7 -28 -7 -28 0 0 7 -7 8 -17
4 -20 -8 -22 -8 -73 -1 -19 2 -43 5 -53 5 -10 1 -15 5 -12 11 3 6 -1 7 -9 4
-9 -3 -16 -1 -16 5 0 6 -7 8 -15 5 -8 -4 -21 -1 -29 5 -7 6 -16 8 -19 4 -4 -3
-9 2 -13 11 -3 9 -12 16 -18 16 -7 0 -21 8 -32 18 -25 23 -54 27 -54 7 0 -8
-5 -15 -12 -15 -6 0 -8 -3 -5 -6 3 -4 2 -15 -4 -25 -5 -11 -6 -19 -2 -19 4 0
23 -13 42 -29 19 -17 37 -29 40 -28 3 1 16 -4 29 -11 12 -7 22 -9 22 -5 0 4 7
-2 16 -13 8 -10 12 -12 8 -4 -7 13 -5 13 9 1 9 -7 17 -10 17 -6 0 4 6 2 14 -4
7 -6 21 -9 30 -5 9 3 16 2 16 -3 0 -14 236 -9 253 5 10 9 17 8 27 -1 8 -8 11
-8 7 -1 -4 7 0 14 7 17 8 3 17 1 20 -6 2 -7 5 -6 5 4 1 8 17 21 36 29 19 7 33
15 31 17 -2 2 14 22 35 44 40 41 49 56 27 43 -8 -5 -7 0 2 11 8 10 15 34 16
54 0 20 3 42 7 48 4 6 3 14 -3 18 -5 3 -10 16 -10 28 0 39 -3 56 -10 52 -4 -2
-13 7 -20 20 -7 14 -20 25 -27 25 -8 0 -11 4 -8 10 3 5 -6 12 -20 16 -13 3
-22 10 -19 15 3 5 -8 12 -25 15 -17 4 -29 9 -27 13 2 3 -12 7 -32 8 -19 1 -38
7 -42 13 -4 6 -16 10 -26 8 -11 -2 -18 2 -16 10 2 10 -2 10 -18 2 -15 -8 -20
-8 -20 1 0 7 -9 9 -21 6 -13 -3 -22 0 -26 10 -5 12 -7 12 -14 1 -7 -11 -11
-10 -19 2 -5 8 -10 11 -10 6 0 -5 -6 -4 -12 1 -7 6 -21 9 -30 8 -10 -2 -18 3
-18 11 0 7 -6 11 -14 8 -15 -6 -112 84 -102 94 3 3 1 11 -5 19 -9 10 -8 13 1
13 10 0 10 3 0 15 -10 12 -9 15 6 15 11 0 15 3 9 8 -18 12 -12 27 29 73 21 24
35 38 32 32 -5 -9 -2 -11 8 -7 9 3 14 9 11 13 -6 10 53 28 83 26 12 -1 22 2
22 5 0 10 118 2 150 -10 3 -1 12 -2 22 -1 9 1 19 -3 23 -9 3 -5 15 -10 26 -10
10 0 19 -4 19 -10 0 -5 9 -10 20 -10 11 0 20 -4 20 -8 0 -15 39 -11 52 6 11
13 11 15 -2 8 -13 -7 -13 -6 0 6 17 15 23 48 8 48 -5 0 -6 5 -2 11 4 7 1 10
-7 7 -8 -3 -23 2 -33 11 -16 13 -18 13 -12 1 4 -8 -2 -4 -13 9 -13 14 -21 18
-21 10 0 -11 -2 -11 -10 1 -5 8 -10 11 -10 5 0 -5 -5 -3 -10 5 -8 12 -11 13
-19 1 -6 -9 -11 -10 -15 -2 -4 6 -12 9 -17 6 -5 -4 -9 -2 -9 3 0 6 -10 8 -22
4 -16 -4 -19 -2 -13 9 8 12 6 12 -8 0 -9 -7 -17 -10 -17 -5 0 14 -132 11 -137
-2z"/>
<path d="M8505 7391 c-3 -6 -14 -8 -25 -6 -12 2 -18 0 -14 -6 3 -5 0 -17 -8
-26 -11 -15 -11 -16 4 -10 10 3 17 3 16 -1 -3 -16 14 -72 43 -137 7 -16 13
-38 12 -47 0 -10 4 -18 10 -18 5 0 3 -8 -4 -17 -10 -11 -10 -14 -1 -9 6 4 13
2 13 -3 1 -6 2 -15 3 -20 0 -6 6 -15 13 -22 6 -6 9 -18 6 -25 -3 -8 1 -14 8
-14 7 0 9 -3 6 -7 -4 -3 -1 -13 6 -21 10 -13 9 -14 -3 -7 -12 7 -13 6 -4 -6 6
-8 10 -22 9 -32 -2 -9 0 -15 5 -12 4 3 11 -2 14 -11 4 -10 2 -13 -7 -9 -6 4
-5 1 4 -7 9 -7 15 -21 13 -30 -1 -10 2 -18 8 -18 5 0 8 -6 6 -12 -3 -7 2 -19
9 -27 12 -11 12 -15 2 -22 -11 -6 -10 -9 3 -14 9 -4 15 -14 13 -23 -1 -9 2
-22 7 -29 5 -7 6 -18 2 -24 -4 -7 -3 -9 3 -6 7 4 13 -8 17 -28 4 -19 12 -35
19 -35 7 0 6 -4 -3 -10 -12 -8 -12 -10 -1 -10 11 0 11 -3 0 -17 -10 -12 -10
-15 -1 -9 12 7 34 -32 25 -46 -2 -5 2 -8 9 -8 9 0 9 -3 -2 -10 -13 -8 -13 -10
2 -10 10 0 15 -7 13 -17 -1 -10 2 -24 8 -30 5 -7 6 -13 2 -13 -4 0 -2 -7 5
-15 6 -8 8 -20 4 -27 -4 -7 -4 -10 1 -6 4 4 15 2 23 -5 13 -10 14 -9 7 2 -6
10 -4 12 6 6 19 -12 49 -14 55 -3 3 4 9 6 14 3 5 -3 12 6 16 20 3 14 11 25 16
25 6 0 8 7 4 15 -3 8 -1 15 4 15 6 0 9 3 9 8 -4 21 2 42 10 38 5 -4 7 3 4 14
-3 12 1 28 10 38 8 9 13 25 12 35 -2 9 1 17 6 17 6 0 8 4 5 9 -3 4 3 25 14 46
11 21 18 41 15 44 -3 2 2 13 12 23 10 12 12 18 4 18 -7 0 -9 5 -6 10 4 6 12 7
18 3 7 -4 6 0 -2 10 -9 12 -10 17 -2 17 7 0 10 4 6 9 -3 5 2 17 11 25 11 12
12 16 2 16 -8 0 -9 3 -3 8 17 12 41 47 28 38 -7 -4 -13 -2 -13 3 0 6 5 11 11
11 5 0 7 5 4 10 -3 6 0 10 7 10 10 0 10 2 -1 9 -11 7 -10 11 5 20 11 6 15 11
10 11 -4 0 -2 10 6 23 8 12 14 30 12 40 -1 9 2 17 7 17 4 0 6 7 3 15 -4 8 -1
15 6 15 6 0 8 5 5 10 -4 6 -1 17 5 25 6 8 9 19 6 24 -4 5 1 14 10 19 9 5 15
12 15 15 -1 4 2 7 7 7 4 0 7 -6 7 -12 0 -7 7 -19 15 -26 13 -12 13 -13 0 -6
-12 7 -13 5 -3 -8 7 -8 14 -27 15 -42 1 -14 6 -26 10 -26 4 0 8 -8 8 -18 0
-10 6 -27 14 -38 10 -13 11 -23 4 -31 -8 -9 -7 -13 4 -13 8 0 15 -12 16 -27 1
-15 7 -32 12 -37 6 -6 10 -20 10 -32 0 -12 4 -24 10 -26 5 -1 11 -12 13 -23
13 -70 20 -95 28 -95 4 0 6 -9 4 -20 -2 -11 0 -20 4 -20 16 0 39 -88 27 -101
-6 -7 -7 -10 -1 -6 6 3 17 -9 24 -26 7 -18 17 -40 22 -50 5 -10 7 -22 4 -27
-4 -6 -2 -10 4 -10 6 0 8 -7 5 -15 -11 -26 37 -60 83 -59 24 0 46 4 50 9 5 4
1 5 -7 1 -13 -7 -13 -6 0 6 16 14 20 24 28 71 2 15 7 27 11 27 4 0 8 12 9 28
1 15 7 29 12 30 6 2 7 9 3 15 -4 6 0 8 10 4 14 -5 15 -3 4 14 -10 16 -9 21 3
29 8 5 11 12 7 16 -4 4 0 18 9 32 11 17 12 22 3 17 -8 -5 -5 1 5 13 11 12 16
22 11 22 -4 0 -2 7 5 15 7 8 9 15 4 15 -4 0 0 6 11 13 12 10 14 16 7 21 -9 5
-6 18 8 45 10 21 16 41 13 45 -4 3 -2 6 4 6 6 0 14 7 17 16 3 8 2 13 -3 9 -9
-5 9 55 19 65 6 6 12 30 13 48 0 6 5 12 10 12 6 0 8 3 4 6 -3 4 0 21 8 39 7
19 11 36 7 39 -3 3 0 6 6 6 6 0 9 7 6 15 -4 8 -1 15 5 15 6 0 11 11 11 25 0
14 5 25 12 25 6 0 9 3 5 6 -3 4 0 22 8 41 8 19 10 31 4 27 -6 -3 -3 6 7 21 29
44 26 52 -17 51 -22 -1 -39 3 -39 8 0 5 -7 3 -15 -4 -8 -7 -15 -19 -15 -27 0
-8 -4 -12 -9 -8 -5 3 -13 0 -17 -6 -4 -8 -3 -9 4 -5 8 5 11 0 8 -16 -3 -13 -5
-27 -5 -31 -1 -5 -5 -6 -10 -2 -5 3 -12 1 -16 -5 -3 -5 -2 -10 3 -10 13 0 2
-43 -12 -52 -7 -5 -7 -8 2 -8 7 0 10 -5 7 -10 -4 -6 -10 -8 -15 -5 -4 3 -8 -1
-7 -8 1 -36 -4 -58 -12 -52 -6 3 -8 -4 -6 -15 2 -11 0 -20 -5 -20 -5 0 -6 -7
-3 -17 4 -10 2 -14 -5 -9 -7 4 -10 -1 -7 -14 2 -11 0 -20 -5 -20 -5 0 -7 -6
-4 -14 3 -8 1 -17 -5 -21 -6 -3 -11 -17 -11 -30 0 -13 -4 -26 -9 -29 -8 -5
-25 -64 -22 -78 0 -5 -3 -8 -7 -8 -4 0 -8 -8 -9 -17 -1 -10 -7 -31 -14 -48 -7
-16 -11 -36 -10 -42 1 -7 -3 -13 -9 -13 -5 0 -9 -3 -9 -7 3 -21 -2 -44 -9 -39
-4 2 -8 -3 -9 -12 -2 -32 -9 -50 -23 -68 -8 -10 -10 -15 -3 -11 7 4 10 1 9
-10 -5 -35 -25 -22 -42 29 -10 29 -19 58 -19 63 0 6 -3 13 -7 16 -5 3 -9 17
-10 31 -1 15 -6 24 -10 22 -4 -3 -8 8 -8 25 0 16 -4 31 -9 33 -5 2 -11 14 -13
28 -1 14 -6 28 -10 31 -5 3 -9 17 -10 32 -1 15 -5 27 -9 27 -3 0 -6 6 -6 13
-1 22 -8 41 -20 55 -7 7 -13 21 -14 30 0 9 -3 26 -5 37 -3 11 -6 26 -6 33 -1
6 -5 12 -10 12 -5 0 -7 4 -3 9 3 5 0 15 -7 23 -7 7 -14 19 -16 26 -1 7 -4 20
-6 30 -1 9 -6 25 -11 34 -4 10 -8 29 -9 42 0 13 -4 22 -7 20 -4 -2 -9 3 -13
11 -3 8 0 15 7 15 7 0 4 5 -5 11 -10 5 -18 19 -18 29 0 13 -6 18 -20 15 -11
-2 -20 -1 -20 3 0 4 -11 7 -24 7 -13 0 -22 -3 -19 -7 2 -5 -3 -8 -11 -8 -14 0
-20 -12 -17 -32 0 -5 -3 -8 -8 -8 -5 0 -8 -8 -7 -17 0 -10 -4 -17 -10 -16 -7
1 -9 -8 -6 -22 2 -15 0 -25 -7 -25 -7 0 -10 -4 -6 -9 3 -5 1 -12 -5 -16 -6 -4
-8 -10 -5 -15 3 -5 1 -17 -4 -27 -5 -10 -12 -31 -16 -46 -3 -15 -10 -25 -14
-22 -5 3 -8 -3 -6 -12 1 -10 -2 -23 -7 -30 -5 -7 -7 -17 -3 -23 3 -5 -1 -13
-10 -16 -12 -5 -13 -9 -4 -20 8 -10 8 -14 0 -14 -6 0 -10 -3 -9 -7 1 -5 -3
-18 -10 -29 -6 -12 -8 -24 -5 -28 3 -3 -2 -6 -13 -7 -10 0 -13 -3 -7 -6 9 -3
10 -10 3 -22 -5 -10 -6 -21 -3 -25 3 -3 2 -6 -4 -6 -5 0 -10 -7 -11 -15 -1 -8
-3 -22 -4 -30 -1 -8 -5 -15 -10 -15 -5 0 -6 -4 -3 -10 3 -5 1 -10 -6 -10 -7 0
-10 -3 -6 -6 3 -3 1 -18 -5 -33 -5 -14 -12 -37 -15 -51 -2 -13 -7 -27 -11 -30
-7 -5 -12 -19 -16 -47 -1 -7 -5 -15 -8 -19 -4 -3 -4 -13 -1 -22 4 -13 3 -14
-5 -4 -5 8 -13 14 -18 15 -5 1 -8 10 -8 20 1 9 -3 17 -8 17 -6 0 -8 9 -5 20 3
11 1 20 -5 20 -5 0 -7 4 -4 9 4 5 2 11 -3 13 -5 1 -11 14 -13 28 -1 14 -10 30
-18 37 -12 10 -12 12 -1 13 10 0 11 3 2 13 -6 8 -8 17 -4 20 3 4 0 7 -7 7 -7
0 -10 3 -7 7 4 3 0 17 -8 30 -12 17 -12 23 -3 23 8 1 5 7 -6 15 -11 8 -17 15
-13 15 3 0 -1 16 -9 35 -8 19 -11 35 -8 35 4 0 1 7 -6 15 -7 8 -9 15 -5 15 4
0 1 8 -6 17 -12 14 -12 16 0 8 16 -9 8 8 -17 38 -8 9 -13 20 -10 23 4 3 0 17
-7 31 -8 15 -11 31 -8 36 3 5 1 12 -6 16 -6 4 -12 19 -13 33 -1 15 -6 24 -10
22 -8 -5 -12 26 -9 54 1 6 -3 12 -8 12 -6 0 -8 6 -5 14 3 8 0 17 -5 21 -6 3
-9 11 -6 16 4 5 1 9 -5 9 -6 0 -8 5 -5 10 3 6 -1 10 -10 10 -9 0 -13 4 -10 10
4 6 -3 6 -21 0 -22 -9 -25 -8 -20 5 6 17 1 20 -9 6z"/>
<path d="M4018 7376 c-9 -7 -15 -21 -14 -32 2 -10 -2 -22 -8 -26 -8 -5 -7 -8
2 -8 7 0 11 -3 9 -8 -4 -6 19 -10 68 -12 6 0 63 1 128 3 65 1 122 0 126 -3 11
-7 21 -37 14 -44 -11 -10 -10 -76 1 -76 6 0 4 -5 -4 -10 -12 -8 -12 -10 -1
-10 11 0 11 -3 0 -17 -11 -13 -11 -17 -2 -20 10 -4 10 -10 2 -25 -8 -16 -8
-19 1 -13 9 6 9 2 0 -16 -10 -18 -10 -24 -1 -27 9 -3 9 -8 -1 -20 -10 -12 -10
-16 -1 -19 10 -4 10 -10 2 -25 -8 -16 -8 -19 1 -13 9 6 9 2 0 -16 -10 -17 -10
-24 -1 -27 6 -2 8 -8 5 -14 -11 -17 -10 -108 1 -108 5 0 3 -5 -5 -10 -13 -9
-13 -10 0 -10 9 0 11 -3 5 -8 -14 -10 -15 -72 -1 -72 6 0 4 -5 -4 -10 -12 -8
-12 -10 -1 -10 11 0 11 -3 0 -17 -11 -13 -11 -17 -2 -20 10 -4 10 -10 2 -25
-8 -16 -8 -19 1 -13 9 6 9 2 0 -16 -10 -18 -10 -24 -1 -27 9 -3 9 -8 -1 -20
-10 -12 -10 -16 0 -19 6 -3 9 -9 6 -14 -10 -17 -12 -59 -2 -59 5 0 7 -4 3 -9
-3 -5 -1 -12 4 -15 5 -4 12 -2 16 4 4 6 11 8 16 4 16 -10 59 -12 53 -3 -3 5 0
9 7 9 7 0 10 3 6 6 -3 3 -2 17 3 30 5 13 6 24 2 24 -8 0 -6 126 3 147 2 7 1
13 -3 13 -8 0 -6 84 3 108 2 6 1 12 -3 12 -9 0 -7 54 3 69 3 6 1 11 -5 11 -8
0 -8 6 0 20 6 11 7 20 2 20 -4 0 -7 15 -5 33 2 17 4 39 4 47 -3 99 -1 142 5
151 4 8 3 9 -4 5 -11 -7 -8 56 4 75 3 5 0 9 -6 9 -8 0 -7 6 1 21 8 15 8 19 0
15 -12 -8 -13 0 -2 28 4 11 17 21 30 23 14 2 20 -1 15 -8 -5 -8 -1 -8 14 0 26
14 35 14 27 1 -4 -7 3 -7 19 0 19 7 26 6 26 -3 0 -8 3 -8 9 2 10 16 34 5 25
-12 -3 -7 0 -5 8 4 9 11 21 13 41 8 17 -5 27 -3 27 4 0 8 3 8 11 0 7 -7 21 -8
40 -3 42 12 44 14 41 29 -2 8 1 10 10 5 10 -6 10 -4 -1 9 -11 14 -11 17 0 17
9 1 7 6 -6 16 -11 8 -28 13 -37 10 -10 -2 -18 1 -18 6 0 6 -7 4 -17 -3 -13
-11 -17 -11 -20 -1 -3 6 -9 12 -14 12 -6 0 -7 -5 -3 -11 4 -7 -1 -7 -16 1 -15
8 -20 8 -16 1 4 -6 2 -11 -3 -11 -6 0 -11 4 -11 10 0 6 -10 6 -27 -1 -20 -7
-28 -6 -35 3 -6 10 -8 10 -8 -2 0 -9 -3 -11 -8 -5 -9 13 -35 18 -27 5 3 -5 1
-10 -4 -10 -6 0 -11 6 -11 13 0 8 -4 7 -10 -3 -9 -13 -10 -13 -10 0 0 13 -1
13 -10 0 -6 -10 -10 -11 -10 -3 0 9 -7 10 -27 2 -19 -7 -28 -7 -34 2 -6 10
-11 10 -23 0 -11 -10 -16 -10 -16 -2 0 9 -5 9 -20 1 -15 -8 -20 -8 -20 1 0 8
-5 7 -17 -2 -13 -11 -17 -11 -20 -1 -3 6 -9 12 -14 12 -6 0 -7 -5 -3 -11 4 -7
-1 -7 -16 1 -15 8 -20 8 -16 1 4 -6 2 -11 -3 -11 -6 0 -11 5 -11 10 0 7 -6 7
-20 0 -15 -8 -20 -8 -20 2 0 10 -2 10 -9 -1 -6 -9 -11 -10 -15 -2 -4 6 -13 8
-19 4 -19 -12 -51 -11 -60 1 -6 8 -10 8 -14 -1 -3 -9 -10 -10 -21 -4 -11 6
-23 5 -34 -3z"/>
<path d="M4955 7376 c-7 -7 -10 -77 -10 -183 1 -115 -2 -173 -9 -173 -7 0 -8
-3 -1 -8 14 -10 15 -105 1 -114 -7 -5 -7 -8 0 -8 7 0 10 -46 8 -137 -1 -76 -2
-138 -3 -138 -2 0 -4 -8 -6 -18 -2 -9 1 -15 6 -11 14 8 11 -20 -3 -35 -8 -8
-8 -11 -2 -8 8 5 11 -12 10 -56 -1 -49 2 -62 14 -62 8 0 20 -3 25 -7 15 -9 56
-3 64 10 3 6 6 34 5 62 -2 35 1 48 9 43 7 -4 6 1 -2 10 -7 9 -11 24 -7 32 3 8
1 15 -5 15 -6 0 -7 5 -4 10 4 6 11 7 17 4 7 -5 8 -2 2 7 -13 20 -13 98 0 107
6 3 79 7 161 8 l150 1 28 -28 c15 -16 27 -36 27 -44 0 -8 4 -15 10 -15 5 0 16
-12 24 -27 8 -16 24 -38 36 -50 11 -13 18 -23 15 -23 -4 0 1 -7 9 -16 9 -8 13
-20 10 -26 -4 -7 -2 -8 4 -4 7 4 17 -3 24 -18 6 -14 15 -26 20 -26 4 0 8 -7 8
-16 0 -8 5 -12 10 -9 6 3 10 2 10 -2 0 -5 15 -8 33 -8 69 3 68 3 55 30 -6 14
-15 25 -20 25 -5 0 -7 4 -4 9 3 5 -1 11 -9 15 -8 3 -15 12 -15 20 0 8 -3 16
-7 18 -12 5 -53 66 -53 78 0 6 -4 9 -9 5 -5 -3 -12 4 -16 15 -3 11 -11 20 -16
20 -6 0 -7 5 -4 10 3 6 1 10 -4 10 -6 0 -11 4 -11 10 0 5 -12 21 -27 36 -21
21 -24 29 -13 32 8 3 18 11 23 18 4 7 13 11 20 8 7 -2 22 5 34 16 12 11 25 20
28 20 8 0 46 40 38 40 -5 0 -1 6 8 13 8 7 18 20 22 30 4 11 12 15 19 11 9 -5
9 -3 -1 9 -9 12 -10 17 -2 17 7 0 10 4 6 9 -3 5 -1 12 5 16 5 3 10 11 10 16 0
6 -6 7 -12 3 -9 -6 -9 -3 1 9 8 10 11 27 7 43 -5 17 -3 23 4 19 6 -4 7 2 2 17
-4 13 -7 32 -7 43 1 11 -4 26 -9 34 -9 12 -8 13 2 7 12 -7 12 -4 1 15 -7 13
-14 30 -15 37 -2 8 -10 21 -18 30 -9 10 -30 32 -46 51 -17 18 -30 30 -30 27 0
-4 -10 2 -22 13 -11 11 -25 18 -30 15 -4 -3 -8 0 -8 6 0 6 -4 9 -9 5 -5 -3
-17 2 -25 11 -9 8 -16 12 -16 8 0 -3 -6 -2 -12 2 -7 5 -34 9 -60 9 -27 0 -48
4 -48 10 0 5 -5 3 -10 -5 -7 -11 -10 -11 -10 -2 0 8 -5 10 -12 6 -16 -10 -68
-11 -68 -1 0 5 -5 5 -12 1 -16 -10 -68 -11 -68 -1 0 5 -6 5 -12 1 -18 -11 -48
-12 -48 -2 0 5 -9 4 -20 -2 -15 -8 -20 -8 -20 2 0 10 -2 10 -9 -1 -6 -9 -11
-10 -15 -2 -4 6 -12 8 -18 5 -15 -9 -52 -11 -58 -3 -3 4 -10 2 -15 -5z m139
-88 c-5 -7 -2 -8 7 -3 15 10 269 13 269 4 0 -3 12 -5 26 -3 15 1 28 -3 31 -12
3 -8 9 -12 13 -9 11 7 60 -16 60 -27 0 -5 4 -7 8 -4 8 5 47 -33 46 -44 -1 -3
6 -10 14 -16 8 -6 12 -16 8 -22 -4 -7 -2 -12 4 -12 7 0 10 -7 6 -15 -3 -8 0
-15 7 -16 9 0 9 -2 -1 -6 -6 -2 -9 -9 -6 -14 8 -14 12 -59 5 -59 -3 0 -7 -19
-8 -41 0 -23 -7 -46 -15 -50 -7 -5 -9 -9 -4 -9 5 0 -5 -13 -22 -29 -16 -16
-27 -33 -24 -37 4 -4 -1 -5 -10 -1 -10 3 -19 0 -22 -9 -3 -9 -10 -12 -16 -9
-5 3 -10 1 -10 -5 0 -6 -5 -8 -11 -5 -5 4 -19 -1 -30 -11 -17 -16 -22 -16 -29
-4 -6 8 -10 10 -10 5 0 -7 -56 -11 -163 -11 l-162 0 -1 135 c0 88 3 139 10
143 8 6 8 8 0 8 -7 0 -10 29 -9 80 2 114 3 116 25 117 13 1 18 -2 14 -9z"/>
<path d="M5954 7378 c-3 -5 -9 -6 -14 -3 -5 3 -7 -13 -6 -35 2 -25 -1 -37 -7
-33 -6 4 -7 1 -1 -8 12 -19 13 -190 1 -182 -6 4 -7 1 -1 -8 14 -23 17 -62 3
-53 -8 5 -9 3 -3 -7 12 -20 13 -240 1 -232 -6 4 -7 1 -1 -8 13 -21 13 -239 0
-231 -7 4 -7 1 0 -9 6 -8 10 -38 8 -66 -2 -35 2 -53 9 -53 7 0 6 -4 -3 -10
-13 -9 -13 -10 0 -11 8 -1 18 -1 23 0 4 0 7 -3 7 -7 0 -5 13 -9 30 -9 16 0 27
5 23 10 -4 6 -1 7 8 1 21 -13 39 -14 39 -2 0 7 5 6 14 -1 8 -7 29 -9 51 -5 29
4 36 3 30 -8 -3 -7 1 -4 9 6 9 11 16 16 16 10 0 -5 44 -9 99 -9 57 0 97 4 94
9 -4 5 0 6 7 1 19 -12 160 -13 160 -1 0 5 8 2 18 -7 17 -16 20 -15 42 8 13 14
18 25 11 25 -8 0 -9 5 -3 17 7 11 6 21 -2 28 -15 16 -66 25 -66 12 0 -6 -9 -2
-21 9 -12 11 -19 13 -17 5 2 -9 -10 -13 -40 -15 -23 0 -42 3 -42 7 0 5 -5 5
-11 1 -15 -9 -124 -8 -139 1 -5 3 -10 0 -10 -7 0 -10 -2 -10 -9 1 -7 11 -9 11
-13 0 -4 -12 -7 -12 -21 0 -10 7 -17 10 -17 5 0 -5 -13 -9 -30 -9 -16 0 -30 4
-30 9 0 5 -7 3 -15 -4 -12 -10 -15 -10 -15 1 0 11 -3 11 -11 -1 -8 -12 -12
-12 -16 -2 -3 8 -9 10 -17 3 -7 -6 -18 -4 -31 6 -17 13 -17 15 -2 9 13 -4 16
-2 10 7 -4 6 -8 23 -8 37 0 14 -4 31 -8 38 -5 7 -3 12 4 12 9 0 9 3 0 14 -7 8
-8 17 -3 20 10 6 9 42 -1 52 -3 4 -2 16 4 27 7 12 7 17 1 13 -8 -5 -9 21 -2
32 5 7 3 49 -3 59 -8 12 10 29 20 19 3 -3 12 -1 20 5 10 9 13 8 13 -2 0 -11 2
-11 10 1 7 11 10 11 10 2 0 -8 5 -10 12 -6 19 12 48 12 48 0 0 -6 5 -4 10 4 7
11 10 11 10 2 0 -7 5 -10 12 -6 16 10 68 13 68 4 0 -11 33 -7 43 5 6 6 10 6
14 -2 3 -9 10 -10 24 -3 14 8 19 7 19 -2 0 -10 2 -10 9 1 6 9 11 10 15 2 5 -8
13 -8 28 0 11 6 23 7 27 3 8 -12 41 -14 41 -4 0 5 8 6 18 4 10 -3 22 3 30 16
8 14 9 20 1 20 -8 0 -8 5 1 15 9 11 9 15 1 15 -7 0 -10 3 -7 8 2 4 -7 13 -21
19 -20 10 -24 9 -20 -2 5 -10 -1 -11 -23 -5 -20 6 -30 5 -34 -3 -2 -7 -5 -7
-5 -2 -1 11 -158 12 -186 2 -8 -4 -15 -3 -15 1 0 4 -16 7 -35 7 -19 0 -35 -4
-35 -10 0 -7 -3 -7 -8 0 -4 6 -16 10 -27 10 -11 0 -23 -4 -27 -10 -5 -6 -8 -6
-8 1 0 6 -11 10 -25 8 -21 -2 -25 1 -20 17 4 11 2 19 -4 19 -6 0 -11 5 -11 11
0 5 4 8 9 5 10 -6 9 70 -2 80 -3 4 -2 15 4 25 7 14 6 19 -3 19 -10 0 -10 2 0
9 8 4 14 12 14 16 0 4 -6 12 -14 16 -7 5 -8 9 -3 9 6 0 11 9 11 20 0 11 -3 20
-6 20 -9 0 -6 32 4 48 4 6 5 15 3 20 -6 8 142 7 185 -1 15 -3 30 -1 34 4 3 6
12 5 22 -3 12 -10 14 -10 8 0 -9 15 -1 15 24 2 11 -6 21 -6 24 -1 3 5 21 5 41
1 19 -4 37 -4 40 1 3 4 17 4 31 -1 17 -7 23 -7 19 0 -9 14 9 12 23 -2 9 -9 12
-9 12 1 0 7 4 10 8 7 13 -8 65 -16 58 -9 -3 3 2 11 11 18 9 7 17 25 19 41 2
21 1 25 -6 14 -8 -13 -10 -12 -10 3 0 10 -4 15 -10 12 -5 -3 -10 -1 -10 6 0 8
-4 8 -15 -1 -11 -9 -15 -9 -15 -1 0 7 -5 9 -11 6 -16 -10 -79 -12 -79 -2 0 4
-5 5 -12 1 -16 -10 -68 -11 -68 -1 0 5 -6 5 -12 1 -19 -12 -48 -12 -48 0 0 6
-5 4 -10 -4 -7 -11 -10 -11 -10 -2 0 8 -5 10 -12 6 -18 -11 -88 -11 -88 1 0 5
-5 3 -10 -5 -7 -11 -10 -11 -10 -2 0 10 -5 10 -20 2 -14 -8 -20 -8 -20 0 0 8
-6 8 -20 0 -15 -8 -20 -8 -20 2 0 9 -3 9 -10 -2 -6 -10 -10 -11 -10 -3 0 9 -7
10 -27 2 -14 -5 -29 -6 -32 -1 -8 10 -51 10 -57 0z"/>
<path d="M6901 7381 c-8 -5 -22 -8 -32 -6 -15 3 -17 -3 -13 -41 2 -33 0 -43
-9 -38 -9 6 -9 4 -1 -7 6 -8 10 -30 9 -49 0 -19 3 -43 8 -52 4 -10 4 -18 -1
-18 -5 0 -8 -37 -7 -82 1 -51 -2 -86 -9 -90 -8 -5 -7 -8 2 -8 6 0 12 -7 12
-15 0 -8 -6 -15 -12 -15 -9 0 -8 -4 2 -10 13 -8 13 -13 2 -31 -8 -11 -9 -18
-3 -15 6 4 9 -19 7 -64 -1 -39 1 -73 6 -76 5 -4 1 -15 -9 -27 -10 -11 -12 -17
-5 -13 9 6 11 -2 7 -33 -3 -29 -1 -41 8 -41 8 0 7 -4 -3 -10 -8 -5 -11 -10 -6
-10 5 0 2 -8 -5 -17 -10 -11 -10 -14 -1 -9 8 5 12 0 12 -14 0 -12 -4 -19 -9
-16 -4 3 -6 -6 -3 -19 2 -15 9 -22 16 -18 6 3 6 0 -1 -8 -15 -15 -17 -43 -3
-34 6 3 7 -1 4 -9 -3 -9 -11 -13 -16 -10 -6 4 -4 -4 3 -17 7 -13 13 -26 13
-29 1 -3 4 -4 8 -3 5 2 8 -2 8 -7 0 -7 6 -7 19 -1 10 6 21 8 24 5 2 -3 19 -7
36 -9 21 -3 29 -1 25 7 -5 7 -2 8 7 2 21 -13 39 -14 39 -2 0 6 6 5 15 -2 12
-10 15 -10 15 1 0 12 2 12 9 1 4 -8 12 -14 16 -14 4 0 12 6 16 14 5 7 9 8 9 2
0 -6 7 -11 15 -11 8 0 15 5 15 11 0 6 4 5 9 -2 4 -8 12 -14 16 -14 4 0 12 6
16 14 5 7 9 9 9 3 0 -12 251 -12 270 0 8 5 11 4 6 -3 -4 -7 3 -9 21 -7 16 2
31 4 34 4 3 1 11 12 17 26 9 19 9 25 -1 25 -8 0 -7 4 3 10 11 7 11 10 2 10 -7
0 -10 5 -6 11 4 7 -6 10 -29 8 -19 -2 -42 3 -51 10 -14 12 -16 12 -10 -3 5
-14 2 -15 -18 -7 -14 5 -31 5 -38 1 -9 -6 -19 -3 -28 8 -7 9 -11 12 -8 6 3 -7
-5 -14 -19 -16 -14 -3 -25 -1 -25 4 0 5 -5 6 -11 3 -16 -10 -149 -11 -149 -1
0 5 -7 3 -15 -4 -12 -10 -15 -10 -15 1 0 11 -2 11 -10 -1 -6 -9 -13 -11 -17
-5 -10 13 -63 14 -63 0 0 -5 -5 -3 -10 5 -6 10 -10 11 -10 3 0 -18 -14 -16
-36 5 -21 19 -25 43 -9 54 6 5 5 8 -4 8 -10 0 -11 3 -2 13 8 10 7 17 -1 25 -9
9 -9 12 1 12 11 0 11 3 0 17 -12 15 -12 16 1 8 13 -8 13 -7 1 8 -11 14 -11 17
0 17 9 0 10 3 4 8 -11 8 -13 47 -3 58 4 4 3 15 -2 25 -7 12 -7 20 0 24 6 4 7
12 3 18 -13 21 -11 35 5 43 30 12 62 13 62 1 0 -7 4 -6 10 3 9 13 10 13 10 0
0 -13 1 -13 10 0 8 12 10 12 10 1 0 -10 3 -11 14 -2 10 9 16 9 21 1 5 -8 10
-8 20 0 9 8 15 8 20 0 3 -6 11 -7 17 -4 16 10 68 13 68 5 0 -10 31 -8 48 3 7
4 12 2 12 -4 0 -8 6 -8 20 0 15 8 20 8 20 -2 0 -10 2 -10 9 1 5 8 11 9 15 3 4
-7 17 -7 36 -2 18 5 30 5 30 -1 0 -15 38 13 43 32 3 10 0 22 -6 28 -8 8 -7 11
3 11 10 0 11 3 3 11 -14 14 -321 18 -327 4 -3 -6 -5 -5 -5 1 -1 6 -12 9 -26 6
-14 -2 -33 2 -42 9 -11 10 -14 10 -9 2 5 -10 -4 -12 -36 -11 -44 2 -78 21 -58
33 8 5 8 11 0 20 -8 10 -7 14 2 18 10 4 10 6 1 6 -9 1 -10 8 -3 25 5 15 5 27
-3 35 -7 7 -7 11 -1 11 12 0 12 35 1 46 -4 4 -2 13 4 21 9 10 8 13 -1 13 -10
0 -10 3 0 15 7 8 8 15 3 15 -12 0 -11 65 2 76 12 11 56 14 49 3 -2 -4 0 -11 6
-14 6 -4 9 -1 8 6 -3 14 70 20 79 6 2 -4 9 -4 15 -1 15 10 79 11 110 3 16 -4
30 -3 34 2 3 6 12 5 22 -3 13 -10 14 -10 8 0 -6 9 -1 11 18 8 14 -3 30 -7 36
-11 5 -3 10 -1 10 6 0 8 4 8 15 -1 8 -7 15 -8 15 -3 0 5 26 7 60 5 57 -4 62
-2 59 24 0 3 8 12 18 20 17 13 17 14 -1 7 -13 -4 -17 -3 -12 5 12 20 -16 41
-42 31 -15 -6 -21 -5 -17 1 4 7 -3 7 -19 0 -18 -6 -26 -6 -26 1 0 6 -6 7 -12
3 -18 -11 -48 -12 -48 -2 0 5 -9 4 -20 -2 -15 -8 -20 -8 -20 2 0 10 -2 10 -9
-1 -6 -9 -11 -10 -15 -2 -4 6 -13 8 -19 4 -17 -11 -30 -11 -44 -1 -6 5 -14 4
-18 -3 -6 -8 -10 -7 -16 2 -6 10 -9 10 -9 2 0 -9 -7 -10 -24 -3 -17 6 -26 5
-30 -3 -5 -9 -7 -9 -12 0 -4 9 -13 9 -31 2 -15 -5 -29 -6 -32 -2 -7 10 -41 13
-41 4 0 -4 -9 -7 -20 -7 -11 0 -20 4 -20 9 0 5 -7 3 -17 -4 -13 -11 -17 -11
-20 -1 -5 14 -13 15 -32 3z"/>
<path d="M7633 7380 c-24 -10 -32 -30 -12 -30 8 0 8 -4 0 -14 -8 -10 -9 -16
-1 -21 6 -3 8 -10 5 -15 -3 -4 15 -7 40 -7 25 1 47 -2 49 -8 3 -5 5 -4 5 3 1
6 6 12 12 12 5 0 7 -4 4 -10 -4 -7 3 -7 20 0 33 13 38 13 29 -1 -4 -7 2 -6 17
2 23 12 23 11 9 -7 -14 -18 -14 -18 6 -2 16 14 23 15 34 5 7 -6 10 -7 7 -1 -4
7 11 10 44 10 27 0 49 -4 49 -9 0 -4 4 -6 8 -3 5 3 9 -1 9 -9 0 -8 -5 -11 -11
-8 -6 3 -5 0 2 -8 6 -7 12 -17 12 -22 0 -4 -6 -5 -12 -1 -10 5 -10 4 -1 -6 8
-9 9 -19 2 -32 -7 -12 -6 -18 1 -18 7 0 8 -6 1 -18 -6 -11 -6 -24 -1 -32 5 -9
4 -20 -3 -29 -10 -12 -9 -13 3 -6 13 8 13 7 1 -8 -10 -13 -10 -17 -1 -17 10 0
10 -3 1 -14 -9 -11 -9 -16 0 -21 8 -6 7 -10 -2 -16 -10 -6 -11 -9 -1 -9 6 0
12 -5 12 -11 0 -5 -4 -8 -8 -5 -5 3 -9 -1 -9 -9 0 -8 5 -11 11 -8 6 4 5 -1 -3
-10 -10 -13 -10 -17 -1 -17 9 0 10 -3 1 -13 -8 -10 -7 -17 1 -25 9 -9 9 -12
-2 -12 -13 0 -13 -2 -1 -9 8 -5 10 -14 5 -22 -10 -18 -11 -49 -2 -71 5 -10 3
-18 -5 -21 -9 -4 -9 -6 1 -6 6 -1 12 -6 12 -12 0 -5 -6 -7 -12 -3 -9 5 -9 2 1
-9 7 -9 9 -17 4 -17 -5 0 -10 -7 -10 -15 0 -8 4 -15 8 -15 10 0 6 -34 -6 -42
-6 -5 -4 -8 5 -8 13 0 13 -1 0 -10 -12 -8 -12 -10 -1 -10 11 0 11 -3 0 -17
-12 -15 -12 -16 1 -8 13 8 13 7 1 -8 -8 -11 -9 -17 -2 -17 7 0 8 -8 1 -25 -7
-18 -6 -25 3 -25 8 0 7 -4 -3 -10 -10 -6 -11 -10 -3 -10 9 0 10 -7 3 -25 -6
-16 -6 -25 0 -25 6 0 9 -3 9 -7 -3 -20 2 -34 11 -28 6 3 10 2 10 -2 0 -5 11
-10 26 -11 14 -1 23 2 20 7 -3 5 2 8 12 7 9 0 16 5 15 12 -2 6 0 12 5 12 4 0
5 32 2 70 -3 39 -3 70 0 70 3 0 3 32 0 70 -3 39 -3 70 0 70 3 0 3 54 0 120 -3
66 -3 120 0 120 3 0 3 32 0 70 -3 39 -3 70 0 70 3 0 4 26 2 57 -6 121 -2 139
30 122 11 -6 18 -7 15 -2 -5 8 93 10 113 2 3 -1 10 0 15 1 30 6 65 5 65 -3 0
-4 4 -6 8 -3 5 3 25 6 45 8 20 1 39 8 41 15 3 7 1 13 -5 13 -6 0 -7 6 -2 13
13 21 12 36 -5 49 -12 10 -14 10 -8 1 4 -7 2 -13 -3 -13 -6 0 -11 6 -11 13 0
8 -4 7 -10 -3 -7 -11 -10 -11 -10 -2 0 10 -5 10 -20 2 -14 -8 -20 -8 -20 0 0
7 -7 7 -21 -1 -16 -8 -20 -8 -14 1 6 9 2 9 -14 1 -15 -8 -21 -9 -21 -1 0 6 -5
8 -12 4 -19 -12 -48 -12 -48 -1 0 5 -7 4 -15 -3 -12 -10 -15 -10 -15 0 0 9 -4
9 -13 2 -8 -7 -18 -7 -27 -2 -9 5 -19 5 -26 -1 -8 -7 -14 -6 -19 1 -5 8 -11 8
-21 -1 -11 -9 -14 -9 -14 0 0 7 -5 9 -12 5 -17 -11 -68 -13 -68 -2 0 5 -8 4
-19 -2 -14 -7 -21 -6 -24 3 -4 9 -6 9 -6 0 -1 -9 -8 -10 -25 -3 -15 5 -27 5
-35 -3 -8 -8 -11 -8 -11 1 0 10 -5 10 -20 2 -15 -8 -20 -8 -20 2 0 10 -2 10
-9 -1 -6 -9 -11 -10 -15 -2 -4 6 -13 8 -19 4 -19 -12 -36 -12 -43 -2 -3 6 -11
5 -20 -2 -10 -8 -14 -8 -14 0 0 13 -7 13 -37 1z"/>
<path d="M10099 7377 c-17 -14 -35 -52 -19 -42 6 3 10 2 10 -4 0 -5 -5 -13
-10 -16 -8 -5 -7 -12 1 -22 10 -12 10 -16 -2 -24 -10 -6 -10 -9 -1 -9 6 0 12
-7 12 -16 0 -9 -5 -12 -12 -8 -9 5 -9 2 1 -9 11 -14 11 -20 0 -34 -10 -11 -10
-14 -1 -9 7 4 12 2 12 -6 0 -8 -6 -20 -12 -27 -8 -8 -8 -11 -2 -8 7 4 12 -3
12 -18 0 -15 -5 -22 -12 -18 -6 3 -3 -2 6 -12 16 -17 16 -19 0 -32 -9 -8 -12
-12 -6 -9 7 3 11 -6 12 -25 0 -20 -3 -27 -11 -22 -7 3 -3 -3 7 -15 19 -22 19
-22 0 -22 -11 0 -15 -3 -8 -8 15 -10 16 -124 1 -115 -7 4 -6 -1 2 -11 12 -14
12 -19 2 -26 -11 -6 -11 -8 0 -12 12 -4 11 -8 -1 -23 -12 -15 -12 -17 -1 -10
11 6 13 4 8 -7 -3 -9 0 -21 6 -28 9 -10 9 -11 -1 -6 -10 6 -11 1 -6 -20 5 -21
4 -25 -7 -19 -8 5 -7 0 3 -10 16 -17 16 -19 0 -32 -9 -8 -11 -11 -3 -7 10 5
13 3 8 -8 -3 -9 0 -21 6 -28 10 -10 8 -12 -7 -6 -14 5 -16 3 -9 -6 15 -20 15
-71 0 -62 -7 5 -6 1 2 -10 13 -15 13 -19 0 -27 -10 -6 -10 -9 -2 -9 7 0 12 -3
12 -7 -4 -25 2 -53 11 -48 6 3 10 2 10 -2 0 -12 224 -10 232 2 5 6 8 6 8 -1 0
-14 50 -13 50 1 0 6 4 5 8 -2 8 -13 29 -13 50 0 7 5 12 3 12 -3 0 -13 32 -9
43 5 4 6 10 6 15 -2 8 -13 29 -13 50 0 6 5 12 4 12 0 0 -5 27 -8 59 -8 37 0
57 3 53 10 -3 5 1 4 9 -2 12 -10 18 -10 27 -1 9 9 12 9 12 -2 0 -13 2 -13 10
0 11 17 14 97 3 87 -3 -4 -15 1 -25 10 -14 12 -17 13 -13 2 4 -11 -6 -14 -48
-13 -29 0 -58 3 -64 7 -5 4 -13 3 -17 0 -10 -11 -46 -11 -46 0 0 5 -6 5 -13
-2 -10 -8 -17 -7 -27 2 -10 9 -11 9 -6 0 4 -7 3 -13 -3 -13 -5 0 -12 6 -14 13
-4 9 -6 8 -6 -2 -1 -11 -4 -11 -16 -1 -8 7 -15 8 -15 4 0 -8 -46 -10 -75 -4
-5 1 -12 2 -15 1 -18 -7 -90 -4 -90 3 0 5 -7 3 -15 -4 -12 -10 -15 -10 -15 1
0 11 -3 11 -11 -1 -8 -11 -12 -12 -16 -2 -2 6 -8 10 -13 7 -4 -3 -10 13 -12
35 -2 22 -1 40 2 40 3 0 3 54 0 120 -3 66 -2 120 2 120 4 0 4 8 1 17 -5 13 -2
15 11 10 10 -4 15 -3 11 3 -3 6 -2 10 4 10 5 0 13 -5 16 -10 4 -7 13 -7 26 0
11 6 25 8 32 3 16 -10 47 -11 41 -1 -3 4 -1 8 5 8 5 0 13 -5 16 -10 4 -6 11
-8 16 -5 18 12 49 14 55 4 4 -6 10 -6 19 1 10 8 15 8 20 0 5 -8 10 -8 20 0 9
8 15 8 20 0 3 -6 12 -7 18 -3 17 10 47 11 47 1 0 -5 10 -3 23 3 26 15 27 14
38 -2 6 -10 10 -10 23 0 8 7 20 10 25 6 7 -3 8 0 5 9 -4 9 -1 16 6 16 10 0 10
3 1 14 -7 9 -8 15 -2 18 6 1 1 14 -10 28 -14 18 -17 20 -12 6 5 -14 3 -17 -7
-11 -19 12 -160 12 -161 0 0 -5 -4 -1 -9 10 -5 11 -9 15 -9 8 -1 -9 -25 -12
-86 -10 -51 1 -85 -2 -85 -8 0 -7 -3 -7 -8 0 -4 6 -23 10 -42 10 -19 0 -38 -4
-42 -10 -5 -6 -8 -5 -8 3 0 7 -4 11 -9 7 -6 -3 -10 61 -10 168 l0 174 47 -2
c26 -1 53 -4 58 -8 6 -3 14 -4 18 0 11 11 68 14 61 3 -4 -6 2 -7 17 -2 26 9
166 8 175 -2 3 -3 12 -1 20 5 10 9 13 8 13 -2 0 -11 2 -11 8 -1 7 9 15 10 35
3 20 -8 27 -7 27 2 0 8 4 7 10 -3 8 -12 10 -12 10 -1 0 11 3 11 15 1 12 -10
16 -9 21 4 3 9 9 14 13 12 3 -2 7 11 8 29 1 26 -3 36 -18 40 -10 4 -23 3 -29
0 -5 -3 -10 -1 -10 5 0 8 -6 8 -20 0 -14 -8 -20 -8 -20 0 0 7 -7 7 -21 -1 -17
-9 -20 -8 -14 2 5 8 4 10 -4 5 -19 -12 -61 -14 -61 -4 0 5 -4 6 -10 3 -17 -10
-50 -14 -50 -6 0 9 -31 8 -48 -3 -7 -4 -12 -2 -12 4 0 6 -4 8 -10 5 -19 -12
-50 -14 -50 -3 0 6 -7 5 -17 -3 -9 -8 -14 -9 -10 -3 3 6 0 11 -8 11 -8 0 -12
-4 -9 -9 3 -4 0 -8 -5 -8 -6 0 -11 4 -11 10 0 6 -10 6 -27 -1 -19 -7 -28 -6
-34 2 -4 7 -12 8 -20 3 -20 -12 -39 -14 -39 -3 0 6 -4 7 -10 4 -18 -11 -50
-14 -50 -4 0 12 -12 11 -31 -4z"/>
<path d="M11288 7371 c-9 -11 -14 -22 -11 -25 3 -3 -1 -8 -10 -12 -9 -3 -13
-12 -10 -21 4 -9 2 -14 -3 -11 -5 4 -10 -5 -10 -19 -1 -13 -10 -31 -20 -39
-11 -9 -13 -12 -6 -9 11 6 11 3 0 -16 -7 -13 -17 -27 -22 -30 -5 -4 -5 -12 -2
-18 4 -6 1 -14 -8 -17 -8 -3 -12 -12 -9 -20 3 -8 0 -14 -6 -14 -6 0 -10 -6 -8
-12 1 -7 -4 -12 -12 -10 -12 3 -12 0 -1 -12 7 -9 8 -16 4 -16 -5 0 -15 -9 -22
-21 -9 -14 -9 -19 -2 -14 6 4 -1 -12 -16 -36 -15 -24 -27 -45 -26 -46 1 -2 1
-5 1 -8 -1 -3 -2 -8 -3 -12 -5 -19 -40 -83 -46 -83 -3 0 -7 -12 -8 -27 -1 -16
-7 -29 -12 -31 -6 -2 -10 -12 -10 -23 0 -10 -5 -19 -11 -19 -5 0 -7 -4 -4 -10
3 -5 1 -10 -5 -10 -7 0 -10 -7 -6 -15 3 -8 -2 -19 -13 -24 -10 -6 -17 -20 -16
-33 1 -13 -3 -26 -8 -30 -6 -3 -12 -15 -13 -25 -2 -9 -7 -19 -12 -21 -6 -2 -8
-12 -5 -22 3 -12 0 -20 -6 -20 -7 0 -9 5 -5 12 4 6 3 8 -4 4 -6 -3 -9 -15 -7
-25 2 -11 -3 -22 -10 -25 -7 -2 -12 -13 -11 -23 2 -10 -4 -24 -13 -31 -12 -10
-13 -15 -3 -18 6 -3 9 -11 5 -17 -4 -7 1 -6 10 2 11 9 17 10 17 2 0 -13 22
-10 32 4 5 6 8 6 8 -2 0 -6 9 -9 20 -6 11 3 17 9 14 14 -3 5 0 9 6 9 6 0 9 4
5 9 -3 5 0 15 7 23 7 7 15 22 16 33 2 11 11 29 20 39 12 14 13 17 3 11 -9 -5
-6 4 7 22 12 17 19 33 15 37 -3 3 -1 6 6 6 7 0 10 4 6 9 -3 5 -1 12 5 16 6 4
8 10 5 15 -9 15 18 17 162 16 77 0 139 3 136 7 -3 5 3 5 13 0 11 -5 60 -8 109
-7 50 1 97 0 106 -2 13 -4 41 -47 41 -64 0 -3 7 -13 15 -22 9 -10 13 -18 10
-18 -4 0 2 -16 13 -36 12 -20 15 -32 8 -28 -7 4 -3 -3 10 -15 12 -12 22 -30
22 -40 0 -10 8 -25 17 -32 11 -10 14 -10 9 -1 -4 6 -2 12 3 12 6 0 11 -5 11
-11 0 -8 5 -8 15 1 8 7 15 8 15 3 0 -5 7 -10 15 -10 8 0 15 4 15 9 0 5 4 7 9
4 13 -9 8 27 -7 42 -7 8 -10 18 -7 23 4 5 1 9 -4 9 -6 0 -11 7 -11 15 0 8 -4
15 -9 15 -6 0 -8 9 -6 20 3 13 -2 20 -12 20 -10 0 -14 6 -10 20 3 11 1 20 -3
20 -9 0 -25 40 -22 53 1 4 -2 7 -8 7 -5 0 -10 9 -10 20 0 11 -4 20 -9 20 -8 0
-24 37 -22 53 1 4 -4 7 -11 7 -6 0 -9 3 -5 6 3 4 0 19 -8 34 -8 15 -11 30 -8
34 4 3 2 6 -4 6 -11 0 -37 57 -34 73 0 4 -3 7 -9 7 -5 0 -10 9 -10 20 0 11 -5
20 -11 20 -5 0 -7 5 -4 10 3 6 2 10 -4 10 -5 0 -8 10 -6 21 3 12 2 19 -2 16
-9 -10 -35 44 -28 60 2 8 1 12 -4 9 -10 -7 -25 22 -22 42 1 6 -3 12 -9 12 -6
0 -8 5 -5 10 3 6 1 10 -5 10 -6 0 -8 5 -5 10 3 6 1 10 -4 10 -6 0 -11 7 -11
15 0 8 -5 15 -10 15 -7 0 -7 7 0 20 8 16 8 20 -2 18 -7 -2 -13 4 -13 12 0 8
-6 20 -14 26 -8 6 -11 16 -7 22 4 7 3 12 -2 12 -5 0 -15 14 -22 30 -9 21 -16
27 -24 21 -7 -6 -17 -6 -26 -1 -9 6 -17 5 -22 -3 -6 -9 -10 -9 -16 0 -6 9 -12
8 -24 -6z m65 -137 c-3 -8 -1 -14 4 -14 12 0 35 -49 28 -60 -3 -4 2 -13 10
-20 8 -7 12 -16 9 -21 -3 -5 0 -9 6 -9 6 0 9 -4 6 -9 -4 -5 -2 -11 4 -13 5 -1
11 -12 13 -23 1 -11 7 -27 12 -35 20 -32 54 -110 47 -110 -4 0 -1 -4 5 -8 7
-4 14 -18 16 -31 2 -12 9 -26 16 -30 7 -5 14 -17 16 -27 2 -10 4 -20 4 -21 1
-2 1 -6 0 -9 0 -4 5 -10 13 -15 10 -6 10 -11 1 -20 -8 -8 -16 -9 -25 -2 -11 8
-33 10 -40 3 -9 -6 -48 -5 -48 2 0 4 -5 8 -11 8 -5 0 -8 -4 -5 -8 3 -5 -1 -9
-9 -9 -8 0 -15 5 -15 10 0 5 -7 4 -15 -3 -12 -10 -15 -10 -15 1 0 10 -3 10 -8
3 -7 -12 -72 -11 -91 0 -6 4 -11 2 -11 -5 0 -8 -4 -9 -13 0 -10 8 -17 7 -25
-1 -9 -9 -12 -9 -12 0 0 14 -21 12 -32 -3 -5 -6 -8 -5 -8 3 0 9 -6 10 -17 4
-16 -7 -27 -8 -49 -3 -3 0 -2 7 3 14 4 6 8 17 8 22 1 6 7 9 14 7 7 -1 10 2 7
7 -8 12 14 71 26 71 5 0 7 4 3 10 -6 9 13 50 29 61 5 4 5 12 2 18 -4 6 -2 11
5 11 7 0 9 3 6 6 -4 4 2 19 13 34 11 15 17 30 13 34 -3 3 -2 6 4 6 6 0 10 10
9 23 -1 13 4 21 12 19 8 -1 11 2 7 8 -4 6 2 25 13 43 10 18 18 40 16 50 -1 9
4 17 12 17 8 0 13 3 13 8 -4 21 2 31 15 26 8 -3 12 -12 9 -20z"/>
<path d="M12008 7376 c-9 -8 -18 -13 -20 -10 -3 3 -4 -6 -2 -18 8 -59 11 -117
5 -114 -3 2 -5 -28 -3 -67 7 -184 6 -227 -1 -227 -5 0 -5 -5 -1 -11 11 -18 10
-89 -1 -93 -7 -3 -7 -5 0 -5 10 -1 11 -121 1 -148 -3 -8 -2 -12 3 -9 8 5 5
-85 -3 -110 -2 -6 -1 -16 3 -23 5 -7 5 -30 1 -51 -4 -22 -3 -37 1 -34 5 3 9 0
9 -5 0 -6 -6 -11 -12 -12 -16 0 31 -22 52 -23 8 -1 21 3 28 8 6 4 12 5 12 0 0
-5 8 2 17 16 12 17 13 25 5 28 -8 2 -9 9 -2 22 7 13 6 20 -2 22 -8 3 -8 9 1
25 7 14 8 24 1 28 -5 3 -10 11 -10 16 0 6 4 8 8 5 5 -3 7 5 6 17 -1 12 -3 22
-4 22 -8 0 -3 88 5 93 18 12 219 10 234 -2 11 -8 13 -8 8 1 -5 8 5 12 35 11
36 0 48 -6 75 -36 19 -20 31 -42 28 -50 -2 -7 -1 -11 4 -8 9 6 47 -44 43 -56
-1 -5 3 -8 8 -8 6 0 10 -7 10 -16 0 -8 4 -13 9 -9 9 5 27 -32 23 -48 -1 -5 2
-6 7 -2 6 3 15 -4 21 -15 16 -29 47 -60 54 -52 3 3 6 1 6 -4 0 -5 18 -9 40
-10 34 0 39 3 37 20 -2 22 -9 33 -39 67 -10 10 -18 24 -18 29 0 6 -4 10 -8 10
-5 0 -15 12 -23 28 -8 15 -23 35 -34 45 -11 10 -13 16 -5 12 8 -4 6 2 -6 12
-24 21 -59 75 -56 86 1 4 -5 7 -13 7 -34 0 5 38 45 44 6 1 36 24 61 48 9 9 20
14 23 11 3 -4 6 1 6 9 0 9 6 18 14 21 7 3 16 19 19 37 4 17 10 29 14 27 8 -5
15 37 17 96 1 15 5 27 9 27 5 0 5 5 2 11 -4 6 -8 25 -10 42 -6 73 -70 187
-106 187 -5 0 -7 5 -4 10 3 6 -1 10 -10 10 -10 0 -13 5 -9 12 4 6 3 8 -3 5 -6
-4 -32 5 -58 18 -25 14 -50 23 -55 20 -5 -3 -11 -2 -13 2 -3 5 -38 8 -79 8
-40 0 -76 5 -80 10 -5 6 -8 5 -8 -3 0 -8 -5 -10 -12 -6 -17 11 -48 12 -42 2 3
-4 1 -8 -5 -8 -5 0 -13 5 -16 10 -4 7 -14 6 -28 -1 -16 -9 -22 -9 -25 -1 -3 9
-9 9 -23 2 -13 -8 -19 -7 -19 0 0 8 -6 8 -20 0 -15 -8 -20 -8 -20 2 0 10 -2
10 -9 -1 -6 -9 -10 -10 -16 -2 -4 8 -11 9 -18 2 -17 -14 -29 -14 -37 -1 -5 8
-11 7 -22 -4z m106 -93 c-5 -14 -4 -15 4 -4 10 14 105 24 96 10 -3 -5 5 -5 18
-1 30 10 109 9 127 -3 9 -5 12 -4 8 2 -8 13 48 12 60 -1 5 -5 2 -6 -6 -1 -10
6 -12 4 -7 -4 6 -9 11 -9 21 -1 10 8 26 6 64 -11 28 -12 51 -25 51 -30 0 -5 5
-9 11 -9 15 0 39 -26 32 -34 -4 -3 2 -6 11 -6 12 0 16 -5 12 -15 -3 -8 -2 -15
2 -15 4 0 12 -16 18 -35 8 -25 8 -35 0 -35 -8 0 -8 -2 0 -8 12 -8 14 -82 2
-82 -4 0 -5 -9 -3 -20 2 -12 -2 -23 -10 -27 -8 -3 -13 -9 -10 -13 7 -11 -60
-82 -69 -73 -3 3 -6 -1 -6 -10 0 -10 -6 -14 -14 -11 -8 3 -17 0 -21 -5 -3 -6
-11 -9 -16 -6 -5 4 -9 2 -9 -4 0 -5 -8 -8 -17 -7 -10 2 -21 -2 -25 -8 -5 -8
-8 -7 -8 2 0 6 -5 12 -11 12 -5 0 -8 -4 -5 -8 3 -5 -62 -8 -144 -8 -91 1 -152
-3 -154 -9 -3 -5 -5 -2 -5 8 -1 11 -6 15 -12 11 -8 -5 -8 -1 0 14 7 14 8 23 1
27 -5 3 -10 11 -10 16 0 6 5 7 12 3 7 -5 8 -3 3 6 -11 18 -13 60 -3 66 5 3 5
11 1 17 -11 17 -10 40 2 56 8 12 7 13 -4 6 -11 -6 -13 -4 -6 11 9 21 9 38 2
69 -2 11 1 23 7 27 6 5 7 8 1 8 -8 0 -10 44 -6 133 1 9 5 17 11 17 5 0 7 -8 4
-17z"/>
</g>
</svg>
