<?xml version="1.0" standalone="no"?>
<!DOCTYPE svg PUBLIC "-//W3C//DTD SVG 20010904//EN"
 "http://www.w3.org/TR/2001/REC-SVG-20010904/DTD/svg10.dtd">
<svg version="1.0" xmlns="http://www.w3.org/2000/svg"
 width="1600.000000pt" height="1600.000000pt" viewBox="0 0 1600.000000 1600.000000"
 preserveAspectRatio="xMidYMid meet">
<metadata>
Created by potrace 1.14, written by Peter Selinger 2001-2017
</metadata>
<g transform="translate(0.000000,1600.000000) scale(0.100000,-0.100000)"
fill="#000000" stroke="none">
<path d="M5800 9701 c-234 -35 -410 -131 -500 -272 -69 -107 -91 -283 -49
-394 41 -110 153 -191 339 -248 47 -14 130 -39 185 -56 116 -35 162 -61 176
-97 12 -34 4 -61 -29 -97 -37 -39 -108 -57 -229 -57 -139 0 -267 30 -392 91
-53 26 -99 45 -103 43 -12 -7 -158 -291 -158 -307 0 -18 119 -77 226 -110 235
-74 549 -74 754 0 77 28 173 89 228 145 99 101 134 185 135 328 1 122 -22 178
-102 252 -61 56 -132 91 -256 127 -262 76 -309 93 -337 121 -52 53 -29 123 55
167 50 27 59 28 192 28 150 0 230 -17 337 -71 26 -13 53 -24 61 -24 8 0 46 66
87 152 l73 151 -22 18 c-31 25 -143 66 -246 89 -101 23 -335 34 -425 21z"/>
<path d="M7355 9701 c-366 -48 -651 -274 -755 -598 -50 -155 -61 -336 -28
-473 17 -71 74 -184 121 -239 100 -117 241 -195 417 -231 90 -19 125 -21 245
-16 255 10 426 77 570 225 l50 52 -127 126 -127 126 -61 -56 c-82 -74 -165
-108 -281 -115 -173 -10 -292 48 -357 173 -21 40 -27 68 -30 141 -5 111 8 175
54 271 97 202 319 305 537 248 71 -18 97 -34 167 -102 l55 -53 148 116 c81 63
147 122 147 131 0 44 -117 148 -227 202 -125 62 -351 94 -518 72z"/>
<path d="M8960 9704 c-263 -32 -499 -159 -640 -345 -119 -158 -169 -302 -177
-514 -5 -113 -2 -142 16 -215 31 -118 73 -192 161 -281 62 -63 92 -85 170
-122 139 -67 213 -82 405 -81 171 0 255 15 383 67 265 107 456 327 523 602 30
120 32 321 5 410 -36 119 -75 186 -160 270 -139 139 -300 203 -526 210 -69 2
-141 1 -160 -1z m268 -395 c112 -57 162 -152 162 -307 -1 -203 -109 -386 -276
-464 -52 -24 -83 -32 -152 -36 -155 -8 -256 30 -329 126 -137 181 -31 556 190
669 85 43 133 53 240 49 88 -3 105 -6 165 -37z"/>
<path d="M3023 9668 c-5 -7 -56 -245 -112 -528 -56 -283 -110 -558 -121 -610
-53 -253 -69 -345 -61 -353 4 -4 235 -7 512 -4 481 3 508 5 584 26 258 71 396
207 412 407 10 138 -37 242 -139 310 l-47 30 64 42 c109 72 165 155 184 270
26 160 -42 294 -183 358 -123 56 -136 57 -627 62 -370 3 -457 1 -466 -10z
m772 -324 c50 -26 70 -74 55 -137 -11 -53 -53 -91 -121 -111 -71 -21 -399 -23
-399 -3 0 24 48 256 55 268 5 8 61 10 189 7 160 -3 186 -5 221 -24z m-73 -574
c51 -14 88 -61 88 -110 0 -86 -37 -132 -128 -160 -55 -17 -93 -20 -269 -20
l-206 0 6 33 c26 145 46 248 52 257 8 13 407 13 457 0z"/>
<path d="M4674 9668 c-11 -18 -303 -1481 -298 -1490 3 -5 99 -8 214 -8 l209 0
15 73 c54 248 284 1423 280 1429 -9 14 -412 10 -420 -4z"/>
<path d="M10045 9658 c-3 -13 -18 -86 -34 -163 -25 -126 -27 -141 -13 -152 12
-10 74 -13 230 -13 198 0 213 -1 208 -17 -2 -10 -9 -43 -15 -73 -74 -372 -175
-874 -191 -948 -11 -51 -20 -99 -20 -107 0 -13 32 -15 209 -15 142 0 212 4
217 11 3 6 58 265 120 576 62 311 116 568 119 571 3 4 101 5 217 4 173 -2 215
1 234 13 17 11 24 11 27 2 3 -9 62 -13 225 -15 164 -2 222 -6 222 -15 -1 -7
-52 -264 -114 -572 -62 -308 -111 -563 -109 -567 2 -5 98 -8 213 -8 l209 0 10
38 c5 20 57 280 116 577 60 297 109 542 111 544 2 2 99 3 217 2 157 -1 217 2
230 11 11 9 26 62 47 163 16 82 30 155 30 162 0 11 -128 13 -670 13 -627 0
-670 -1 -679 -17 -10 -17 -10 -17 -11 0 0 16 -39 17 -675 17 l-675 0 -5 -22z
m1322 -190 c-3 -8 -6 -5 -6 6 -1 11 2 17 5 13 3 -3 4 -12 1 -19z m-10 -60 c-3
-7 -5 -2 -5 12 0 14 2 19 5 13 2 -7 2 -19 0 -25z"/>
<path d="M12916 9663 c-7 -24 -296 -1471 -296 -1483 0 -14 417 -13 425 0 9 14
295 1447 295 1476 l0 24 -209 0 c-191 0 -210 -2 -215 -17z"/>
<path d="M13790 9608 c-77 -30 -159 -114 -189 -193 -30 -79 -26 -197 8 -267
28 -57 85 -117 149 -154 39 -23 62 -29 133 -32 100 -5 141 5 215 54 88 58 154
178 154 279 0 89 -62 213 -131 264 -17 13 -54 33 -82 47 -69 32 -177 33 -257
2z m255 -33 c53 -23 121 -90 151 -146 23 -45 31 -175 14 -235 -18 -64 -103
-154 -172 -184 -80 -35 -178 -32 -253 5 -200 102 -240 357 -79 505 96 89 218
109 339 55z"/>
<path d="M13790 9292 c0 -83 4 -153 9 -156 5 -4 16 -3 25 0 12 5 16 20 16 65
l0 59 39 0 c37 0 42 -4 83 -62 46 -65 55 -73 76 -59 11 7 6 20 -23 63 l-36 55
30 31 c38 38 41 80 7 119 -22 26 -29 27 -125 31 l-101 4 0 -150z m184 92 c22
-21 20 -61 -3 -74 -11 -5 -45 -10 -75 -10 l-56 0 0 50 0 50 59 0 c41 0 65 -5
75 -16z"/>
<path d="M653 7985 c-39 -17 -73 -68 -73 -110 0 -35 29 -83 62 -101 34 -19
14682 -19 14716 0 33 18 62 66 62 102 0 43 -39 97 -80 111 -27 9 -1708 12
-7345 12 -6255 0 -7315 -2 -7342 -14z"/>
<path d="M3480 7381 c-144 -29 -231 -125 -231 -254 0 -72 9 -101 45 -144 46
-55 165 -107 326 -143 30 -7 83 -26 118 -42 49 -23 66 -37 82 -68 24 -46 25
-66 6 -111 -34 -81 -102 -112 -241 -113 -114 0 -170 15 -261 70 -64 39 -78 35
-89 -21 -6 -27 -1 -33 43 -63 83 -56 159 -75 297 -76 147 -1 213 17 282 78 58
51 82 104 83 178 0 135 -74 205 -270 258 -217 57 -265 79 -299 134 -38 60 -20
130 44 184 83 68 240 69 389 4 62 -28 63 -28 81 8 22 43 20 47 -35 75 -95 48
-258 68 -370 46z"/>
<path d="M8472 7382 c-10 -7 6 -64 71 -258 47 -137 108 -319 137 -404 28 -85
63 -188 77 -227 l26 -73 53 0 c29 0 55 4 59 9 6 11 131 369 212 611 31 91 59
168 62 173 4 4 14 -14 23 -40 9 -27 44 -127 77 -223 33 -96 81 -236 106 -310
25 -74 53 -154 62 -177 l16 -43 53 0 c41 0 55 4 63 18 5 9 50 139 100 287 50
149 118 350 151 449 33 98 60 184 60 192 0 10 -13 14 -46 14 -42 0 -46 -2 -59
-34 -18 -42 -222 -642 -243 -713 -8 -29 -19 -53 -23 -53 -10 0 -3 -22 -231
653 l-50 147 -52 0 -52 0 -21 -62 c-12 -35 -60 -175 -108 -313 -48 -137 -100
-288 -115 -334 -16 -46 -32 -86 -34 -89 -7 -6 5 -40 -145 406 -71 211 -132
386 -134 389 -10 10 -82 14 -95 5z"/>
<path d="M4002 7338 l3 -43 165 -5 165 -5 3 -432 2 -433 55 0 55 0 0 435 0
435 168 2 167 3 0 40 0 40 -393 3 -393 2 3 -42z"/>
<path d="M4945 7368 c-3 -7 -4 -222 -3 -478 l3 -465 52 -3 c52 -3 52 -3 57 30
3 18 5 85 3 148 l-2 115 159 5 c99 3 164 1 171 -5 7 -5 56 -72 109 -148 61
-86 107 -142 122 -148 32 -11 65 -11 84 1 12 8 12 13 -6 37 -79 107 -204 283
-204 288 0 3 20 14 44 26 67 31 131 105 151 174 40 136 -1 282 -100 357 -88
68 -143 78 -406 78 -175 0 -231 -3 -234 -12z m521 -110 c87 -46 124 -107 124
-208 0 -72 -19 -122 -61 -162 -58 -55 -110 -67 -306 -69 l-167 -1 -3 214 c-2
117 -1 224 2 236 l6 24 177 -4 c169 -3 179 -5 228 -30z"/>
<path d="M5935 7368 c-3 -7 -4 -222 -3 -478 l3 -465 343 -3 342 -2 0 45 0 45
-290 0 -290 0 0 175 0 175 248 2 247 3 3 43 c3 38 1 42 -20 42 -13 0 -124 2
-248 3 l-225 2 -3 167 -2 168 277 2 278 3 3 43 3 42 -331 0 c-255 0 -332 -3
-335 -12z"/>
<path d="M6855 7368 c-3 -7 -4 -222 -3 -478 l3 -465 343 -3 342 -2 0 45 0 45
-290 0 -290 0 0 175 0 175 248 2 247 3 3 42 3 43 -248 2 -248 3 -3 167 -2 168
277 2 278 3 3 43 3 42 -331 0 c-255 0 -332 -3 -335 -12z"/>
<path d="M7622 7338 l3 -43 168 -3 167 -2 0 -434 0 -434 33 -3 c17 -2 42 -3
55 -1 l22 3 0 435 0 434 165 0 165 0 6 24 c3 14 4 33 2 43 -3 17 -25 18 -396
21 l-393 2 3 -42z"/>
<path d="M10085 7368 c-3 -7 -4 -222 -3 -478 l3 -465 343 -3 342 -2 0 45 0 45
-290 0 -290 0 0 175 0 175 248 2 247 3 3 42 3 43 -248 2 -248 3 -3 167 -2 168
277 2 278 3 3 43 3 42 -331 0 c-255 0 -332 -3 -335 -12z"/>
<path d="M11239 7273 c-28 -60 -68 -146 -89 -193 -21 -47 -58 -128 -82 -180
-25 -52 -68 -147 -96 -210 -29 -63 -68 -146 -86 -185 -19 -38 -31 -74 -26 -78
4 -5 29 -7 56 -5 l48 3 55 123 54 122 267 0 267 0 28 -62 c16 -35 41 -91 58
-125 l30 -63 53 0 c30 0 54 4 54 9 0 5 -11 31 -24 58 -13 26 -44 93 -69 148
-25 55 -62 136 -82 180 -21 44 -57 123 -80 175 -24 52 -58 129 -78 170 -19 41
-49 108 -68 148 l-33 72 -53 0 -54 0 -50 -107z m217 -262 c57 -129 104 -238
104 -243 0 -4 -99 -8 -221 -8 -183 0 -220 2 -216 14 36 94 213 476 220 473 5
-1 55 -108 113 -236z"/>
<path d="M11995 7368 c-3 -7 -4 -222 -3 -478 l3 -465 53 -3 52 -3 0 150 0 150
163 3 c180 3 172 6 221 -69 13 -21 55 -81 93 -133 l69 -95 57 -3 c31 -2 57 0
57 4 0 3 -49 75 -110 159 -60 85 -110 156 -110 159 0 3 22 17 49 30 200 102
219 410 33 538 -86 59 -138 68 -393 68 -175 0 -231 -3 -234 -12z m507 -101
c99 -45 143 -120 136 -234 -4 -87 -40 -144 -113 -182 -47 -24 -61 -26 -230
-31 -99 -3 -183 -4 -187 -2 -5 2 -8 109 -8 239 l0 235 183 -4 c142 -4 190 -8
219 -21z"/>
</g>
</svg>
